<?xml version="1.0" encoding="iso-8859-1"?>
<!-- Generator: Adobe Illustrator 18.1.1, SVG Export Plug-In . SVG Version: 6.00 Build 0)  -->
<svg version="1.1" id="Layer_1" xmlns="http://www.w3.org/2000/svg" xmlns:xlink="http://www.w3.org/1999/xlink" x="0px" y="0px"
	 viewBox="148.667 0 333 288" style="enable-background:new 148.667 0 333 288;" xml:space="preserve">
<g>
	<linearGradient id="SVGID_1_" gradientUnits="userSpaceOnUse" x1="241.8243" y1="69.1445" x2="241.8243" y2="159.3125">
		<stop  offset="0" style="stop-color:#FFFFFF"/>
		<stop  offset="1" style="stop-color:#000000"/>
	</linearGradient>
	<polygon style="fill:url(#SVGID_1_);" points="286.908,83.65 196.74,83.65 201.753,81.652 282.7,81.652 	"/>
	<rect x="176.497" y="83.532" style="fill:#D1D3D4;" width="130.218" height="4.926"/>
	<rect x="173.254" y="89.765" style="fill:#D1D3D4;" width="138.353" height="39.512"/>
	<path style="fill:#E6E7E8;" d="M242.344,88.003"/>
	<path style="fill:#E6E7E8;" d="M242.344,95.155"/>
	<linearGradient id="SVGID_2_" gradientUnits="userSpaceOnUse" x1="242.149" y1="58.2555" x2="242.149" y2="224.9507">
		<stop  offset="0" style="stop-color:#FFFFFF"/>
		<stop  offset="1" style="stop-color:#000000"/>
	</linearGradient>
	<rect x="223.664" y="88.015" style="fill:url(#SVGID_2_);" width="36.969" height="38.428"/>
	<g>
		<rect x="222.435" y="89.514" style="fill:#D1D3D4;" width="3.801" height="1.266"/>
		<rect x="222.995" y="90.78" style="fill:#D1D3D4;" width="2.68" height="30.147"/>
		<rect x="222.435" y="120.927" style="fill:#D1D3D4;" width="3.801" height="1.266"/>
	</g>
	<g>
		<rect x="228.712" y="88.458" style="fill:#D1D3D4;" width="3.801" height="1.307"/>
		<rect x="229.272" y="89.765" style="fill:#D1D3D4;" width="2.68" height="31.114"/>
		<rect x="228.712" y="120.879" style="fill:#D1D3D4;" width="3.801" height="1.307"/>
	</g>
	<g>
		<rect x="234.815" y="88.015" style="fill:#D1D3D4;" width="3.801" height="1.307"/>
		<rect x="235.376" y="89.322" style="fill:#D1D3D4;" width="2.68" height="31.114"/>
		<rect x="234.815" y="120.436" style="fill:#D1D3D4;" width="3.801" height="1.307"/>
	</g>
	<g>
		<rect x="244.036" y="88.015" style="fill:#D1D3D4;" width="3.801" height="1.307"/>
		<rect x="244.597" y="89.322" style="fill:#D1D3D4;" width="2.68" height="31.114"/>
		<rect x="244.036" y="120.436" style="fill:#D1D3D4;" width="3.801" height="1.307"/>
	</g>
	<g>
		<rect x="251.265" y="88.458" style="fill:#D1D3D4;" width="3.801" height="1.307"/>
		<rect x="251.826" y="89.765" style="fill:#D1D3D4;" width="2.68" height="31.114"/>
		<rect x="251.265" y="120.879" style="fill:#D1D3D4;" width="3.801" height="1.307"/>
	</g>
	<g>
		<rect x="258.105" y="89.514" style="fill:#D1D3D4;" width="3.801" height="1.266"/>
		<rect x="258.666" y="90.78" style="fill:#D1D3D4;" width="2.68" height="30.147"/>
		<rect x="258.105" y="120.927" style="fill:#D1D3D4;" width="3.801" height="1.266"/>
	</g>
	<ellipse style="fill:#D1D3D4;" cx="241.391" cy="125.183" rx="26.233" ry="4.094"/>
	<g>
		<rect x="227.77" y="78.346" style="fill:#D1D3D4;" width="3.013" height="5.344"/>
		<rect x="227.557" y="78.257" style="fill:#D1D3D4;" width="3.431" height="0.285"/>
	</g>
	<g>
		<rect x="253.003" y="78.346" style="fill:#D1D3D4;" width="3.013" height="5.344"/>
		<rect x="252.79" y="78.257" style="fill:#D1D3D4;" width="3.431" height="0.285"/>
	</g>
	<g>
		<rect x="264.042" y="96.05" style="fill:#BCBEC0;" width="4.848" height="8.831"/>
		<rect x="276.443" y="96.05" style="fill:#BCBEC0;" width="4.848" height="8.831"/>
		<rect x="288.844" y="96.05" style="fill:#BCBEC0;" width="4.848" height="8.831"/>
		<rect x="301.245" y="96.05" style="fill:#BCBEC0;" width="4.848" height="8.831"/>
		<rect x="264.042" y="112.737" style="fill:#BCBEC0;" width="4.848" height="8.831"/>
		<rect x="276.443" y="112.737" style="fill:#BCBEC0;" width="4.848" height="8.831"/>
		<rect x="288.844" y="112.737" style="fill:#BCBEC0;" width="4.848" height="8.831"/>
		<rect x="301.245" y="112.737" style="fill:#BCBEC0;" width="4.848" height="8.831"/>
	</g>
	<g>
		<rect x="178.715" y="96.05" style="fill:#BCBEC0;" width="4.848" height="8.831"/>
		<rect x="191.116" y="96.05" style="fill:#BCBEC0;" width="4.848" height="8.831"/>
		<rect x="203.517" y="96.05" style="fill:#BCBEC0;" width="4.848" height="8.831"/>
		<rect x="215.918" y="96.05" style="fill:#BCBEC0;" width="4.848" height="8.831"/>
		<rect x="178.715" y="112.737" style="fill:#BCBEC0;" width="4.848" height="8.831"/>
		<rect x="191.116" y="112.737" style="fill:#BCBEC0;" width="4.848" height="8.831"/>
		<rect x="203.517" y="112.737" style="fill:#BCBEC0;" width="4.848" height="8.831"/>
		<rect x="215.918" y="112.737" style="fill:#BCBEC0;" width="4.848" height="8.831"/>
	</g>
	<rect x="175.977" y="84.28" style="fill:#D1D3D4;" width="133.465" height="5.484"/>
	<path style="fill:#E6E7E8;" d="M261.346,90.147c0,0-3.424-2.876-18.738-2.876c-15.533,0-18.54,2.615-18.54,2.615v-6.73
		c0,0,3.101-3.324,18.54-3.324c15.788,0,18.54,3.324,18.54,3.324L261.346,90.147z"/>
	<path style="fill:#D1D3D4;" d="M262.179,84.6c0,0-3.387-3.49-19.469-3.49c-16.312,0-19.469,3.49-19.469,3.49v-1.277
		c0,0,3.257-3.49,19.469-3.49c16.58,0,19.469,3.49,19.469,3.49V84.6z"/>
	<rect x="261.148" y="84.615" style="fill:#E6E7E8;" width="47.84" height="4.496"/>
	<rect x="176.635" y="84.615" style="fill:#E6E7E8;" width="47.636" height="4.496"/>
	<path style="fill:#D1D3D4;" d="M261.148,89.322c0,0-3.226-3.324-18.54-3.324c-15.533,0-18.54,3.324-18.54,3.324v-1.216
		c0,0,3.101-3.324,18.54-3.324c15.788,0,18.54,3.324,18.54,3.324V89.322z"/>
	<rect x="225.158" y="86.885" style="fill:#E6E7E8;" width="0.087" height="0"/>
	<path style="fill:#BCBEC0;" d="M262.077,90.871c0,0-3.387-3.57-19.469-3.57c-16.312,0-19.469,3.57-19.469,3.57v-1.306
		c0,0,3.257-3.57,19.469-3.57c16.58,0,19.469,3.57,19.469,3.57V90.871z"/>
	<g>
		<g>
			<rect x="180.132" y="84.989" style="fill:#D1D3D4;" width="0.311" height="4.122"/>
			<rect x="181.147" y="84.989" style="fill:#D1D3D4;" width="0.311" height="4.122"/>
			<rect x="182.162" y="84.989" style="fill:#D1D3D4;" width="0.311" height="4.122"/>
			<rect x="183.177" y="84.989" style="fill:#D1D3D4;" width="0.311" height="4.122"/>
			<rect x="184.191" y="84.989" style="fill:#D1D3D4;" width="0.311" height="4.122"/>
			<rect x="185.206" y="84.989" style="fill:#D1D3D4;" width="0.311" height="4.122"/>
			<rect x="186.221" y="84.989" style="fill:#D1D3D4;" width="0.311" height="4.122"/>
		</g>
		<rect x="176.571" y="84.989" style="fill:#D1D3D4;" width="2.577" height="4.122"/>
		<g>
			<rect x="191.076" y="84.989" style="fill:#D1D3D4;" width="0.311" height="4.122"/>
			<rect x="192.091" y="84.989" style="fill:#D1D3D4;" width="0.311" height="4.122"/>
			<rect x="193.106" y="84.989" style="fill:#D1D3D4;" width="0.311" height="4.122"/>
			<rect x="194.121" y="84.989" style="fill:#D1D3D4;" width="0.311" height="4.122"/>
			<rect x="195.136" y="84.989" style="fill:#D1D3D4;" width="0.311" height="4.122"/>
			<rect x="196.151" y="84.989" style="fill:#D1D3D4;" width="0.311" height="4.122"/>
			<rect x="197.165" y="84.989" style="fill:#D1D3D4;" width="0.311" height="4.122"/>
		</g>
		<rect x="187.515" y="84.989" style="fill:#D1D3D4;" width="2.577" height="4.122"/>
		<g>
			<rect x="202.021" y="84.989" style="fill:#D1D3D4;" width="0.311" height="4.122"/>
			<rect x="203.036" y="84.989" style="fill:#D1D3D4;" width="0.311" height="4.122"/>
			<rect x="204.05" y="84.989" style="fill:#D1D3D4;" width="0.311" height="4.122"/>
			<rect x="205.065" y="84.989" style="fill:#D1D3D4;" width="0.311" height="4.122"/>
			<rect x="206.08" y="84.989" style="fill:#D1D3D4;" width="0.311" height="4.122"/>
			<rect x="207.095" y="84.989" style="fill:#D1D3D4;" width="0.311" height="4.122"/>
			<rect x="208.11" y="84.989" style="fill:#D1D3D4;" width="0.311" height="4.122"/>
		</g>
		<rect x="198.46" y="84.989" style="fill:#D1D3D4;" width="2.577" height="4.122"/>
		<g>
			<rect x="212.965" y="84.989" style="fill:#D1D3D4;" width="0.311" height="4.122"/>
			<rect x="213.98" y="84.989" style="fill:#D1D3D4;" width="0.311" height="4.122"/>
			<rect x="214.995" y="84.989" style="fill:#D1D3D4;" width="0.311" height="4.122"/>
			<rect x="216.01" y="84.989" style="fill:#D1D3D4;" width="0.311" height="4.122"/>
			<rect x="217.024" y="84.989" style="fill:#D1D3D4;" width="0.311" height="4.122"/>
			<rect x="218.039" y="84.989" style="fill:#D1D3D4;" width="0.311" height="4.122"/>
			<rect x="219.054" y="84.989" style="fill:#D1D3D4;" width="0.311" height="4.122"/>
		</g>
		<rect x="209.404" y="84.989" style="fill:#D1D3D4;" width="2.577" height="4.122"/>
		<rect x="220.348" y="84.989" style="fill:#D1D3D4;" width="2.577" height="4.122"/>
	</g>
	<g>
		<g>
			<rect x="266.194" y="84.991" style="fill:#D1D3D4;" width="0.311" height="4.122"/>
			<rect x="267.209" y="84.991" style="fill:#D1D3D4;" width="0.311" height="4.122"/>
			<rect x="268.224" y="84.991" style="fill:#D1D3D4;" width="0.311" height="4.122"/>
			<rect x="269.239" y="84.991" style="fill:#D1D3D4;" width="0.311" height="4.122"/>
			<rect x="270.253" y="84.991" style="fill:#D1D3D4;" width="0.311" height="4.122"/>
			<rect x="271.268" y="84.991" style="fill:#D1D3D4;" width="0.311" height="4.122"/>
			<rect x="272.283" y="84.991" style="fill:#D1D3D4;" width="0.311" height="4.122"/>
		</g>
		<rect x="262.633" y="84.991" style="fill:#D1D3D4;" width="2.577" height="4.122"/>
		<g>
			<rect x="277.138" y="84.991" style="fill:#D1D3D4;" width="0.311" height="4.122"/>
			<rect x="278.153" y="84.991" style="fill:#D1D3D4;" width="0.311" height="4.122"/>
			<rect x="279.168" y="84.991" style="fill:#D1D3D4;" width="0.311" height="4.122"/>
			<rect x="280.183" y="84.991" style="fill:#D1D3D4;" width="0.311" height="4.122"/>
			<rect x="281.198" y="84.991" style="fill:#D1D3D4;" width="0.311" height="4.122"/>
			<rect x="282.212" y="84.991" style="fill:#D1D3D4;" width="0.311" height="4.122"/>
			<rect x="283.227" y="84.991" style="fill:#D1D3D4;" width="0.311" height="4.122"/>
		</g>
		<rect x="273.577" y="84.991" style="fill:#D1D3D4;" width="2.577" height="4.122"/>
		<g>
			<rect x="288.083" y="84.991" style="fill:#D1D3D4;" width="0.311" height="4.122"/>
			<rect x="289.098" y="84.991" style="fill:#D1D3D4;" width="0.311" height="4.122"/>
			<rect x="290.112" y="84.991" style="fill:#D1D3D4;" width="0.311" height="4.122"/>
			<rect x="291.127" y="84.991" style="fill:#D1D3D4;" width="0.311" height="4.122"/>
			<rect x="292.142" y="84.991" style="fill:#D1D3D4;" width="0.311" height="4.122"/>
			<rect x="293.157" y="84.991" style="fill:#D1D3D4;" width="0.311" height="4.122"/>
			<rect x="294.172" y="84.991" style="fill:#D1D3D4;" width="0.311" height="4.122"/>
		</g>
		<rect x="284.522" y="84.991" style="fill:#D1D3D4;" width="2.577" height="4.122"/>
		<g>
			<rect x="299.027" y="84.991" style="fill:#D1D3D4;" width="0.311" height="4.122"/>
			<rect x="300.042" y="84.991" style="fill:#D1D3D4;" width="0.311" height="4.122"/>
			<rect x="301.057" y="84.991" style="fill:#D1D3D4;" width="0.311" height="4.122"/>
			<rect x="302.072" y="84.991" style="fill:#D1D3D4;" width="0.311" height="4.122"/>
			<rect x="303.086" y="84.991" style="fill:#D1D3D4;" width="0.311" height="4.122"/>
			<rect x="304.101" y="84.991" style="fill:#D1D3D4;" width="0.311" height="4.122"/>
			<rect x="305.116" y="84.991" style="fill:#D1D3D4;" width="0.311" height="4.122"/>
		</g>
		<rect x="295.466" y="84.991" style="fill:#D1D3D4;" width="2.577" height="4.122"/>
		<rect x="306.41" y="84.991" style="fill:#D1D3D4;" width="2.577" height="4.122"/>
	</g>
	<rect x="172.444" y="89.569" style="fill:#BCBEC0;" width="50.694" height="1.155"/>
	<rect x="261.752" y="89.89" style="fill:#BCBEC0;" width="50.694" height="1.155"/>
	<g>
		<rect x="276.367" y="78.346" style="fill:#D1D3D4;" width="3.013" height="5.344"/>
		<rect x="276.155" y="78.257" style="fill:#D1D3D4;" width="3.431" height="0.285"/>
	</g>
	<g>
		<rect x="201.688" y="78.346" style="fill:#D1D3D4;" width="3.013" height="5.344"/>
		<rect x="201.475" y="78.257" style="fill:#D1D3D4;" width="3.431" height="0.285"/>
	</g>
	<linearGradient id="SVGID_3_" gradientUnits="userSpaceOnUse" x1="198.667" y1="119.1511" x2="198.667" y2="139.511">
		<stop  offset="0" style="stop-color:#FFFFFF;stop-opacity:0"/>
		<stop  offset="1" style="stop-color:#000000"/>
	</linearGradient>
	<rect x="173.254" y="122.185" style="fill:url(#SVGID_3_);" width="50.826" height="7.177"/>
	<linearGradient id="SVGID_4_" gradientUnits="userSpaceOnUse" x1="285.3577" y1="119.1126" x2="285.3577" y2="139.4725">
		<stop  offset="0" style="stop-color:#FFFFFF;stop-opacity:0"/>
		<stop  offset="1" style="stop-color:#000000"/>
	</linearGradient>
	<rect x="259.109" y="122.147" style="fill:url(#SVGID_4_);" width="52.498" height="7.177"/>
	<rect x="222.435" y="122.193" style="fill:#D1D3D4;" width="39.317" height="7.084"/>
</g>
<g>
	<rect x="394.085" y="82.943" style="fill:#D1D3D4;" width="45.717" height="0.496"/>
	<g>
		<rect x="401.235" y="64.666" style="fill:#D1D3D4;" width="30.034" height="18.296"/>
		<ellipse style="fill:#D1D3D4;" cx="416.253" cy="66.456" rx="15.017" ry="18.65"/>
		<ellipse style="fill:#D1D3D4;" cx="416.252" cy="39.802" rx="3.534" ry="4.389"/>
		<rect x="399.242" y="74.837" style="fill:#D1D3D4;" width="34.02" height="10.742"/>
		<rect x="400.8" y="63.859" style="fill:#D1D3D4;" width="30.905" height="1.062"/>
		<rect x="401.026" y="64.922" style="fill:#D1D3D4;" width="30.501" height="0.274"/>
		<rect x="400.8" y="73.774" style="fill:#D1D3D4;" width="30.905" height="1.062"/>
		<rect x="415.345" y="31.658" style="fill:#D1D3D4;" width="1.814" height="4.282"/>
		<rect x="412.036" y="47.492" style="fill:#D1D3D4;" width="8.434" height="1.062"/>
		<rect x="412.181" y="39.271" style="fill:#D1D3D4;" width="8.143" height="1.062"/>
		<linearGradient id="SVGID_5_" gradientUnits="userSpaceOnUse" x1="416.3097" y1="40.6716" x2="416.1362" y2="50.508">
			<stop  offset="0" style="stop-color:#FFFFFF"/>
			<stop  offset="1" style="stop-color:#000000"/>
		</linearGradient>
		<rect x="412.716" y="40.333" style="fill:url(#SVGID_5_);" width="7.073" height="7.159"/>
		<linearGradient id="SVGID_6_" gradientUnits="userSpaceOnUse" x1="416.3076" y1="65.8264" x2="416.3076" y2="83.962">
			<stop  offset="0" style="stop-color:#FFFFFF"/>
			<stop  offset="1" style="stop-color:#000000"/>
		</linearGradient>
		<rect x="401.346" y="66.164" style="fill:url(#SVGID_6_);" width="29.924" height="7.082"/>
		<rect x="415.994" y="30.168" style="fill:#D1D3D4;" width="0.517" height="1.49"/>
		<linearGradient id="SVGID_7_" gradientUnits="userSpaceOnUse" x1="416.2209" y1="77.6061" x2="416.4548" y2="111.6429">
			<stop  offset="0" style="stop-color:#D1D3D4"/>
			<stop  offset="1" style="stop-color:#000000"/>
		</linearGradient>
		<polygon style="fill:url(#SVGID_7_);" points="431.958,84.752 400.547,84.752 400.547,79.678 416.253,75.781 431.958,79.678 		"/>
		<g>
			<rect x="412.483" y="40.333" style="fill:#D1D3D4;" width="1.396" height="0.278"/>
			<rect x="412.689" y="40.611" style="fill:#D1D3D4;" width="0.985" height="6.618"/>
			<rect x="412.483" y="47.229" style="fill:#D1D3D4;" width="1.396" height="0.278"/>
		</g>
		<g>
			<rect x="413.996" y="40.325" style="fill:#D1D3D4;" width="1.396" height="0.278"/>
			<rect x="414.202" y="40.603" style="fill:#D1D3D4;" width="0.985" height="6.618"/>
			<rect x="413.996" y="47.221" style="fill:#D1D3D4;" width="1.396" height="0.278"/>
		</g>
		<g>
			<rect x="415.575" y="40.333" style="fill:#D1D3D4;" width="1.396" height="0.278"/>
			<rect x="415.781" y="40.611" style="fill:#D1D3D4;" width="0.985" height="6.618"/>
			<rect x="415.575" y="47.229" style="fill:#D1D3D4;" width="1.396" height="0.278"/>
		</g>
		<g>
			<rect x="417.181" y="40.333" style="fill:#D1D3D4;" width="1.396" height="0.278"/>
			<rect x="417.387" y="40.611" style="fill:#D1D3D4;" width="0.985" height="6.618"/>
			<rect x="417.181" y="47.229" style="fill:#D1D3D4;" width="1.396" height="0.278"/>
		</g>
		<g>
			<rect x="418.72" y="40.333" style="fill:#D1D3D4;" width="1.396" height="0.278"/>
			<rect x="418.926" y="40.611" style="fill:#D1D3D4;" width="0.985" height="6.618"/>
			<rect x="418.72" y="47.229" style="fill:#D1D3D4;" width="1.396" height="0.278"/>
		</g>
		<g>
			<rect x="403.067" y="66.118" style="fill:#D1D3D4;" width="1.536" height="0.278"/>
			<rect x="403.293" y="66.396" style="fill:#D1D3D4;" width="1.083" height="6.618"/>
			<rect x="403.067" y="73.014" style="fill:#D1D3D4;" width="1.536" height="0.278"/>
		</g>
		<g>
			<rect x="400.984" y="66.118" style="fill:#D1D3D4;" width="1.536" height="0.278"/>
			<rect x="401.211" y="66.396" style="fill:#D1D3D4;" width="1.083" height="6.618"/>
			<rect x="400.984" y="73.014" style="fill:#D1D3D4;" width="1.536" height="0.278"/>
		</g>
		<g>
			<rect x="405.149" y="66.118" style="fill:#D1D3D4;" width="1.536" height="0.278"/>
			<rect x="405.376" y="66.396" style="fill:#D1D3D4;" width="1.083" height="6.618"/>
			<rect x="405.149" y="73.014" style="fill:#D1D3D4;" width="1.536" height="0.278"/>
		</g>
		<g>
			<rect x="407.232" y="66.118" style="fill:#D1D3D4;" width="1.536" height="0.278"/>
			<rect x="407.459" y="66.396" style="fill:#D1D3D4;" width="1.083" height="6.618"/>
			<rect x="407.232" y="73.014" style="fill:#D1D3D4;" width="1.536" height="0.278"/>
		</g>
		<g>
			<rect x="409.315" y="66.118" style="fill:#D1D3D4;" width="1.536" height="0.278"/>
			<rect x="409.541" y="66.396" style="fill:#D1D3D4;" width="1.083" height="6.618"/>
			<rect x="409.315" y="73.014" style="fill:#D1D3D4;" width="1.536" height="0.278"/>
		</g>
		<g>
			<rect x="411.397" y="66.118" style="fill:#D1D3D4;" width="1.536" height="0.278"/>
			<rect x="411.624" y="66.396" style="fill:#D1D3D4;" width="1.083" height="6.618"/>
			<rect x="411.397" y="73.014" style="fill:#D1D3D4;" width="1.536" height="0.278"/>
		</g>
		<g>
			<rect x="413.48" y="66.118" style="fill:#D1D3D4;" width="1.536" height="0.278"/>
			<rect x="413.706" y="66.396" style="fill:#D1D3D4;" width="1.083" height="6.618"/>
			<rect x="413.48" y="73.014" style="fill:#D1D3D4;" width="1.536" height="0.278"/>
		</g>
		<g>
			<rect x="415.562" y="66.118" style="fill:#D1D3D4;" width="1.536" height="0.278"/>
			<rect x="415.789" y="66.396" style="fill:#D1D3D4;" width="1.083" height="6.618"/>
			<rect x="415.562" y="73.014" style="fill:#D1D3D4;" width="1.536" height="0.278"/>
		</g>
		<g>
			<rect x="417.645" y="66.118" style="fill:#D1D3D4;" width="1.536" height="0.278"/>
			<rect x="417.872" y="66.396" style="fill:#D1D3D4;" width="1.083" height="6.618"/>
			<rect x="417.645" y="73.014" style="fill:#D1D3D4;" width="1.536" height="0.278"/>
		</g>
		<g>
			<rect x="419.727" y="66.118" style="fill:#D1D3D4;" width="1.536" height="0.278"/>
			<rect x="419.954" y="66.396" style="fill:#D1D3D4;" width="1.083" height="6.618"/>
			<rect x="419.727" y="73.014" style="fill:#D1D3D4;" width="1.536" height="0.278"/>
		</g>
		<g>
			<rect x="421.81" y="66.118" style="fill:#D1D3D4;" width="1.536" height="0.278"/>
			<rect x="422.037" y="66.396" style="fill:#D1D3D4;" width="1.083" height="6.618"/>
			<rect x="421.81" y="73.014" style="fill:#D1D3D4;" width="1.536" height="0.278"/>
		</g>
		<g>
			<rect x="423.893" y="66.118" style="fill:#D1D3D4;" width="1.536" height="0.278"/>
			<rect x="424.119" y="66.396" style="fill:#D1D3D4;" width="1.083" height="6.618"/>
			<rect x="423.893" y="73.014" style="fill:#D1D3D4;" width="1.536" height="0.278"/>
		</g>
		<g>
			<rect x="425.975" y="66.118" style="fill:#D1D3D4;" width="1.536" height="0.278"/>
			<rect x="426.202" y="66.396" style="fill:#D1D3D4;" width="1.083" height="6.618"/>
			<rect x="425.975" y="73.014" style="fill:#D1D3D4;" width="1.536" height="0.278"/>
		</g>
		<g>
			<rect x="428.058" y="66.118" style="fill:#D1D3D4;" width="1.536" height="0.278"/>
			<rect x="428.284" y="66.396" style="fill:#D1D3D4;" width="1.083" height="6.618"/>
			<rect x="428.058" y="73.014" style="fill:#D1D3D4;" width="1.536" height="0.278"/>
		</g>
		<g>
			<rect x="430.14" y="66.118" style="fill:#D1D3D4;" width="1.536" height="0.278"/>
			<rect x="430.367" y="66.396" style="fill:#D1D3D4;" width="1.083" height="6.618"/>
			<rect x="430.14" y="73.014" style="fill:#D1D3D4;" width="1.536" height="0.278"/>
		</g>
	</g>
	<linearGradient id="SVGID_8_" gradientUnits="userSpaceOnUse" x1="416.2206" y1="79.8357" x2="416.4546" y2="113.8725">
		<stop  offset="0" style="stop-color:#D1D3D4"/>
		<stop  offset="1" style="stop-color:#000000"/>
	</linearGradient>
	<polygon style="fill:url(#SVGID_8_);" points="431.958,86.981 400.547,86.981 400.547,81.907 416.252,78.011 431.958,81.907 	"/>
	<linearGradient id="SVGID_9_" gradientUnits="userSpaceOnUse" x1="416.9133" y1="88.0547" x2="417.6453" y2="194.5783">
		<stop  offset="0" style="stop-color:#D1D3D4"/>
		<stop  offset="1" style="stop-color:#000000"/>
	</linearGradient>
	<rect x="394.821" y="82.496" style="fill:url(#SVGID_9_);" width="44.302" height="28.108"/>
	<linearGradient id="SVGID_10_" gradientUnits="userSpaceOnUse" x1="416.6328" y1="90.2591" x2="417.3679" y2="197.2176">
		<stop  offset="0" style="stop-color:#D1D3D4"/>
		<stop  offset="1" style="stop-color:#000000"/>
	</linearGradient>
	<rect x="386.101" y="84.735" style="fill:url(#SVGID_10_);" width="61.181" height="28.108"/>
	<linearGradient id="SVGID_11_" gradientUnits="userSpaceOnUse" x1="415.8918" y1="111.8762" x2="416.5326" y2="205.1108">
		<stop  offset="0" style="stop-color:#D1D3D4"/>
		<stop  offset="1" style="stop-color:#000000"/>
	</linearGradient>
	<rect x="374.845" y="107.16" style="fill:url(#SVGID_11_);" width="82.197" height="24.303"/>
	<linearGradient id="SVGID_12_" gradientUnits="userSpaceOnUse" x1="416.7657" y1="81.565" x2="416.7657" y2="127.1601">
		<stop  offset="0" style="stop-color:#FFFFFF"/>
		<stop  offset="1" style="stop-color:#000000"/>
	</linearGradient>
	<rect x="394.854" y="88.36" style="fill:url(#SVGID_12_);" width="43.824" height="16.072"/>
	<rect x="391.808" y="107.119" style="fill:#D1D3D4;" width="50.271" height="17.881"/>
	<g>
		<rect x="411.174" y="88.36" style="fill:#D1D3D4;" width="1.724" height="0.623"/>
		<rect x="411.428" y="88.982" style="fill:#D1D3D4;" width="1.215" height="14.827"/>
		<rect x="411.174" y="103.81" style="fill:#D1D3D4;" width="1.724" height="0.623"/>
	</g>
	<g>
		<rect x="394.854" y="88.36" style="fill:#D1D3D4;" width="1.724" height="0.623"/>
		<rect x="395.108" y="88.982" style="fill:#D1D3D4;" width="1.215" height="14.827"/>
		<rect x="394.854" y="103.81" style="fill:#D1D3D4;" width="1.724" height="0.623"/>
	</g>
	<g>
		<rect x="397.519" y="88.36" style="fill:#D1D3D4;" width="1.724" height="0.623"/>
		<rect x="397.773" y="88.982" style="fill:#D1D3D4;" width="1.215" height="14.827"/>
		<rect x="397.519" y="103.81" style="fill:#D1D3D4;" width="1.724" height="0.623"/>
	</g>
	<g>
		<rect x="402.409" y="88.36" style="fill:#D1D3D4;" width="1.724" height="0.623"/>
		<rect x="402.663" y="88.982" style="fill:#D1D3D4;" width="1.215" height="14.827"/>
		<rect x="402.409" y="103.81" style="fill:#D1D3D4;" width="1.724" height="0.623"/>
	</g>
	<g>
		<rect x="405.074" y="88.36" style="fill:#D1D3D4;" width="1.724" height="0.623"/>
		<rect x="405.328" y="88.982" style="fill:#D1D3D4;" width="1.215" height="14.827"/>
		<rect x="405.074" y="103.81" style="fill:#D1D3D4;" width="1.724" height="0.623"/>
	</g>
	<g>
		<rect x="434.289" y="88.36" style="fill:#D1D3D4;" width="1.724" height="0.623"/>
		<rect x="434.543" y="88.982" style="fill:#D1D3D4;" width="1.215" height="14.827"/>
		<rect x="434.289" y="103.81" style="fill:#D1D3D4;" width="1.724" height="0.623"/>
	</g>
	<g>
		<rect x="436.954" y="88.36" style="fill:#D1D3D4;" width="1.724" height="0.623"/>
		<rect x="437.208" y="88.982" style="fill:#D1D3D4;" width="1.215" height="14.827"/>
		<rect x="436.954" y="103.81" style="fill:#D1D3D4;" width="1.724" height="0.623"/>
	</g>
	<g>
		<rect x="425.091" y="88.36" style="fill:#D1D3D4;" width="1.724" height="0.623"/>
		<rect x="425.345" y="88.982" style="fill:#D1D3D4;" width="1.215" height="14.827"/>
		<rect x="425.091" y="103.81" style="fill:#D1D3D4;" width="1.724" height="0.623"/>
	</g>
	<g>
		<rect x="427.756" y="88.36" style="fill:#D1D3D4;" width="1.724" height="0.623"/>
		<rect x="428.01" y="88.982" style="fill:#D1D3D4;" width="1.215" height="14.827"/>
		<rect x="427.756" y="103.81" style="fill:#D1D3D4;" width="1.724" height="0.623"/>
	</g>
	<g>
		<rect x="419.634" y="88.36" style="fill:#D1D3D4;" width="1.724" height="0.623"/>
		<rect x="419.888" y="88.982" style="fill:#D1D3D4;" width="1.215" height="14.827"/>
		<rect x="419.634" y="103.81" style="fill:#D1D3D4;" width="1.724" height="0.623"/>
	</g>
	<rect x="394.085" y="104.446" style="fill:#D1D3D4;" width="45.717" height="1.031"/>
	<rect x="391.837" y="105.143" style="fill:#D1D3D4;" width="50.623" height="3.951"/>
	<rect x="391.782" y="123.43" style="fill:#D1D3D4;" width="51.727" height="3.951"/>
	<g>
		<linearGradient id="SVGID_13_" gradientUnits="userSpaceOnUse" x1="416.7491" y1="108.0258" x2="416.7972" y2="136.1827">
			<stop  offset="0" style="stop-color:#FFFFFF"/>
			<stop  offset="1" style="stop-color:#000000"/>
		</linearGradient>
		<path style="fill:url(#SVGID_13_);" d="M419.476,113.544c0,0.609,0,8.374,0,8.374h-5.421c0,0,0-7.542,0-8.374
			c0-1.624,1.213-2.94,2.71-2.94S419.476,111.92,419.476,113.544z"/>
		<linearGradient id="SVGID_14_" gradientUnits="userSpaceOnUse" x1="409.7324" y1="108.0258" x2="409.7805" y2="136.1827">
			<stop  offset="0" style="stop-color:#FFFFFF"/>
			<stop  offset="1" style="stop-color:#000000"/>
		</linearGradient>
		<path style="fill:url(#SVGID_14_);" d="M412.459,113.544c0,0.609,0,8.374,0,8.374h-5.421c0,0,0-7.542,0-8.374
			c0-1.624,1.213-2.94,2.71-2.94C411.246,110.604,412.459,111.92,412.459,113.544z"/>
		<linearGradient id="SVGID_15_" gradientUnits="userSpaceOnUse" x1="402.7156" y1="108.0258" x2="402.7638" y2="136.1827">
			<stop  offset="0" style="stop-color:#FFFFFF"/>
			<stop  offset="1" style="stop-color:#000000"/>
		</linearGradient>
		<path style="fill:url(#SVGID_15_);" d="M405.443,113.544c0,0.609,0,8.374,0,8.374h-5.421c0,0,0-7.542,0-8.374
			c0-1.624,1.213-2.94,2.71-2.94C404.229,110.604,405.443,111.92,405.443,113.544z"/>
		<linearGradient id="SVGID_16_" gradientUnits="userSpaceOnUse" x1="395.6989" y1="108.0258" x2="395.747" y2="136.1827">
			<stop  offset="0" style="stop-color:#FFFFFF"/>
			<stop  offset="1" style="stop-color:#000000"/>
		</linearGradient>
		<path style="fill:url(#SVGID_16_);" d="M398.426,113.544c0,0.609,0,8.374,0,8.374h-5.421c0,0,0-7.542,0-8.374
			c0-1.624,1.213-2.94,2.71-2.94S398.426,111.92,398.426,113.544z"/>
		<linearGradient id="SVGID_17_" gradientUnits="userSpaceOnUse" x1="423.7658" y1="108.0258" x2="423.814" y2="136.1827">
			<stop  offset="0" style="stop-color:#FFFFFF"/>
			<stop  offset="1" style="stop-color:#000000"/>
		</linearGradient>
		<path style="fill:url(#SVGID_17_);" d="M426.493,113.544c0,0.609,0,8.374,0,8.374h-5.421c0,0,0-7.542,0-8.374
			c0-1.624,1.213-2.94,2.71-2.94S426.493,111.92,426.493,113.544z"/>
		<linearGradient id="SVGID_18_" gradientUnits="userSpaceOnUse" x1="430.7826" y1="108.0258" x2="430.8307" y2="136.1827">
			<stop  offset="0" style="stop-color:#FFFFFF"/>
			<stop  offset="1" style="stop-color:#000000"/>
		</linearGradient>
		<path style="fill:url(#SVGID_18_);" d="M433.51,113.544c0,0.609,0,8.374,0,8.374h-5.421c0,0,0-7.542,0-8.374
			c0-1.624,1.213-2.94,2.71-2.94S433.51,111.92,433.51,113.544z"/>
		<linearGradient id="SVGID_19_" gradientUnits="userSpaceOnUse" x1="437.7993" y1="108.0258" x2="437.8475" y2="136.1827">
			<stop  offset="0" style="stop-color:#FFFFFF"/>
			<stop  offset="1" style="stop-color:#000000"/>
		</linearGradient>
		<path style="fill:url(#SVGID_19_);" d="M440.526,113.544c0,0.609,0,8.374,0,8.374h-5.421c0,0,0-7.542,0-8.374
			c0-1.624,1.213-2.94,2.71-2.94C439.313,110.604,440.526,111.92,440.526,113.544z"/>
	</g>
</g>
<linearGradient id="SVGID_20_" gradientUnits="userSpaceOnUse" x1="1390.1766" y1="305.9832" x2="1390.1766" y2="317.1334" gradientTransform="matrix(-1 0 0 -1 1703.1824 536.5662)">
	<stop  offset="0" style="stop-color:#FFFFFF;stop-opacity:0"/>
	<stop  offset="1" style="stop-color:#000000"/>
</linearGradient>
<rect x="262.465" y="224.991" style="fill:url(#SVGID_20_);" width="101.082" height="3.931"/>
<g>
	<rect x="261.495" y="215.691" style="fill:#D1D3D4;" width="101.082" height="39.032"/>
	
		<linearGradient id="SVGID_21_" gradientUnits="userSpaceOnUse" x1="1391.1461" y1="308.3892" x2="1391.1461" y2="322.3809" gradientTransform="matrix(-1 0 0 -1 1703.1824 536.5662)">
		<stop  offset="0" style="stop-color:#FFFFFF;stop-opacity:0"/>
		<stop  offset="0.6352" style="stop-color:#000000"/>
	</linearGradient>
	<rect x="261.495" y="223.148" style="fill:url(#SVGID_21_);" width="101.082" height="4.932"/>
	<rect x="257.992" y="222.363" style="fill:#D1D3D4;" width="109.089" height="2.669"/>
	<rect x="260.661" y="215.691" style="fill:#D1D3D4;" width="102.417" height="0.834"/>
	<linearGradient id="SVGID_22_" gradientUnits="userSpaceOnUse" x1="311.9945" y1="212.4804" x2="311.9945" y2="296.7084">
		<stop  offset="0" style="stop-color:#FFFFFF"/>
		<stop  offset="1" style="stop-color:#000000"/>
	</linearGradient>
	<rect x="261.453" y="225.032" style="fill:url(#SVGID_22_);" width="101.082" height="29.691"/>
	<g>
		<g>
			<rect x="259.744" y="225.032" style="fill:#D1D3D4;" width="3.503" height="27.397"/>
			<rect x="259.41" y="225.032" style="fill:#D1D3D4;" width="4.149" height="0.532"/>
			<rect x="259.41" y="251.898" style="fill:#D1D3D4;" width="4.149" height="0.532"/>
		</g>
		<g>
			<rect x="269.021" y="225.032" style="fill:#D1D3D4;" width="3.503" height="27.397"/>
			<rect x="268.688" y="225.032" style="fill:#D1D3D4;" width="4.149" height="0.532"/>
			<rect x="268.688" y="251.898" style="fill:#D1D3D4;" width="4.149" height="0.532"/>
		</g>
		<g>
			<rect x="278.299" y="225.032" style="fill:#D1D3D4;" width="3.503" height="27.397"/>
			<rect x="277.965" y="225.032" style="fill:#D1D3D4;" width="4.149" height="0.532"/>
			<rect x="277.965" y="251.898" style="fill:#D1D3D4;" width="4.149" height="0.532"/>
		</g>
		<g>
			<rect x="287.576" y="225.032" style="fill:#D1D3D4;" width="3.503" height="27.397"/>
			<rect x="287.242" y="225.032" style="fill:#D1D3D4;" width="4.149" height="0.532"/>
			<rect x="287.242" y="251.898" style="fill:#D1D3D4;" width="4.149" height="0.532"/>
		</g>
		<g>
			<rect x="296.853" y="225.032" style="fill:#D1D3D4;" width="3.503" height="27.397"/>
			<rect x="296.52" y="225.032" style="fill:#D1D3D4;" width="4.149" height="0.532"/>
			<rect x="296.52" y="251.898" style="fill:#D1D3D4;" width="4.149" height="0.532"/>
		</g>
		<g>
			<rect x="306.131" y="225.032" style="fill:#D1D3D4;" width="3.503" height="27.397"/>
			<rect x="305.797" y="225.032" style="fill:#D1D3D4;" width="4.149" height="0.532"/>
			<rect x="305.797" y="251.898" style="fill:#D1D3D4;" width="4.149" height="0.532"/>
		</g>
		<g>
			<rect x="315.408" y="225.032" style="fill:#D1D3D4;" width="3.503" height="27.397"/>
			<rect x="315.075" y="225.032" style="fill:#D1D3D4;" width="4.149" height="0.532"/>
			<rect x="315.075" y="251.898" style="fill:#D1D3D4;" width="4.149" height="0.532"/>
		</g>
		<g>
			<rect x="324.686" y="225.032" style="fill:#D1D3D4;" width="3.503" height="27.397"/>
			<rect x="324.352" y="225.032" style="fill:#D1D3D4;" width="4.149" height="0.532"/>
			<rect x="324.352" y="251.898" style="fill:#D1D3D4;" width="4.149" height="0.532"/>
		</g>
		<g>
			<rect x="333.963" y="225.032" style="fill:#D1D3D4;" width="3.503" height="27.397"/>
			<rect x="333.63" y="225.032" style="fill:#D1D3D4;" width="4.149" height="0.532"/>
			<rect x="333.63" y="251.898" style="fill:#D1D3D4;" width="4.149" height="0.532"/>
		</g>
		<g>
			<rect x="343.241" y="225.032" style="fill:#D1D3D4;" width="3.503" height="27.397"/>
			<rect x="342.907" y="225.032" style="fill:#D1D3D4;" width="4.149" height="0.532"/>
			<rect x="342.907" y="251.898" style="fill:#D1D3D4;" width="4.149" height="0.532"/>
		</g>
		<g>
			<rect x="352.518" y="225.032" style="fill:#D1D3D4;" width="3.503" height="27.397"/>
			<rect x="352.184" y="225.032" style="fill:#D1D3D4;" width="4.149" height="0.532"/>
			<rect x="352.184" y="251.898" style="fill:#D1D3D4;" width="4.149" height="0.532"/>
		</g>
		<g>
			<rect x="361.795" y="225.032" style="fill:#D1D3D4;" width="3.503" height="27.397"/>
			<rect x="361.462" y="225.032" style="fill:#D1D3D4;" width="4.149" height="0.532"/>
			<rect x="361.462" y="251.898" style="fill:#D1D3D4;" width="4.149" height="0.532"/>
		</g>
	</g>
	<polygon style="fill:#D1D3D4;" points="372.752,263.814 251.237,263.814 257.992,252.43 367.081,252.43 	"/>
</g>
<g>
	<linearGradient id="SVGID_23_" gradientUnits="userSpaceOnUse" x1="430.5843" y1="198.1201" x2="431.7216" y2="363.6125">
		<stop  offset="0" style="stop-color:#FFFFFF"/>
		<stop  offset="1" style="stop-color:#000000"/>
	</linearGradient>
	<path style="fill:url(#SVGID_23_);" d="M455.515,240.332c0,13.609-11.171,19.499-24.78,19.499s-24.502-5.89-24.502-19.499
		s11.032-24.641,24.641-24.641S455.515,226.724,455.515,240.332z"/>
	<rect x="407.895" y="228.935" style="fill:#D1D3D4;" width="45.596" height="1.266"/>
	<rect x="408.567" y="227.669" style="fill:#D1D3D4;" width="44.337" height="1.266"/>
	<rect x="401.344" y="231.695" style="fill:#D1D3D4;" width="59.936" height="1.266"/>
	<rect x="409.606" y="226.404" style="fill:#D1D3D4;" width="42.196" height="1.266"/>
	<linearGradient id="SVGID_24_" gradientUnits="userSpaceOnUse" x1="430.7096" y1="226.1219" x2="430.7096" y2="228.9337">
		<stop  offset="0" style="stop-color:#FFFFFF;stop-opacity:0"/>
		<stop  offset="1" style="stop-color:#000000"/>
	</linearGradient>
	<rect x="409.617" y="226.541" style="opacity:0.26;fill:url(#SVGID_24_);" width="42.185" height="0.991"/>
	<linearGradient id="SVGID_25_" gradientUnits="userSpaceOnUse" x1="430.7516" y1="227.5247" x2="430.7516" y2="230.3365">
		<stop  offset="0" style="stop-color:#FFFFFF;stop-opacity:0"/>
		<stop  offset="1" style="stop-color:#000000"/>
	</linearGradient>
	<rect x="408.599" y="227.944" style="opacity:0.26;fill:url(#SVGID_25_);" width="44.305" height="0.991"/>
	<linearGradient id="SVGID_26_" gradientUnits="userSpaceOnUse" x1="430.6811" y1="228.8312" x2="430.6811" y2="231.6431">
		<stop  offset="0" style="stop-color:#FFFFFF;stop-opacity:0"/>
		<stop  offset="1" style="stop-color:#000000"/>
	</linearGradient>
	<rect x="407.87" y="229.25" style="opacity:0.26;fill:url(#SVGID_26_);" width="45.622" height="0.991"/>
	<linearGradient id="SVGID_27_" gradientUnits="userSpaceOnUse" x1="430.8405" y1="229.1794" x2="431.0912" y2="265.6729">
		<stop  offset="0" style="stop-color:#D1D3D4"/>
		<stop  offset="1" style="stop-color:#000000"/>
	</linearGradient>
	<polygon style="fill:url(#SVGID_27_);" points="449.122,236.831 412.627,236.831 412.627,231.396 430.874,227.223 449.122,231.396 
			"/>
	<polygon style="fill:#D1D3D4;" points="449.279,235.454 412.785,235.454 412.785,230.02 431.032,225.846 449.279,230.02 	"/>
	<linearGradient id="SVGID_28_" gradientUnits="userSpaceOnUse" x1="431.2833" y1="217.9771" x2="431.2833" y2="303.0192">
		<stop  offset="0" style="stop-color:#FFFFFF"/>
		<stop  offset="1" style="stop-color:#000000"/>
	</linearGradient>
	<rect x="402.408" y="230.65" style="fill:url(#SVGID_28_);" width="57.75" height="29.978"/>
	<rect x="402.164" y="230.241" style="fill:#D1D3D4;" width="58.276" height="2.739"/>
	
		<rect x="402.162" y="232.191" transform="matrix(1 0.0042 -0.0042 1 0.9938 -1.8257)" style="fill:#D1D3D4;" width="58.179" height="2.739"/>
	<g>
		<rect x="413.99" y="234.586" style="fill:#D1D3D4;" width="2.246" height="0.686"/>
		<rect x="414.321" y="235.272" style="fill:#D1D3D4;" width="1.583" height="16.332"/>
		<rect x="413.99" y="251.604" style="fill:#D1D3D4;" width="2.246" height="0.686"/>
	</g>
	<g>
		<rect x="418.586" y="234.586" style="fill:#D1D3D4;" width="2.246" height="0.686"/>
		<rect x="418.917" y="235.272" style="fill:#D1D3D4;" width="1.583" height="16.332"/>
		<rect x="418.586" y="251.604" style="fill:#D1D3D4;" width="2.246" height="0.686"/>
	</g>
	<g>
		<rect x="423.181" y="234.586" style="fill:#D1D3D4;" width="2.246" height="0.686"/>
		<rect x="423.512" y="235.272" style="fill:#D1D3D4;" width="1.583" height="16.332"/>
		<rect x="423.181" y="251.604" style="fill:#D1D3D4;" width="2.246" height="0.686"/>
	</g>
	<g>
		<rect x="401.951" y="234.586" style="fill:#D1D3D4;" width="2.246" height="0.686"/>
		<rect x="402.282" y="235.272" style="fill:#D1D3D4;" width="1.583" height="16.332"/>
		<rect x="401.951" y="251.604" style="fill:#D1D3D4;" width="2.246" height="0.686"/>
	</g>
	<g>
		<rect x="406.074" y="234.586" style="fill:#D1D3D4;" width="2.246" height="0.686"/>
		<rect x="406.405" y="235.272" style="fill:#D1D3D4;" width="1.583" height="16.332"/>
		<rect x="406.074" y="251.604" style="fill:#D1D3D4;" width="2.246" height="0.686"/>
	</g>
	<g>
		<rect x="410.019" y="234.586" style="fill:#D1D3D4;" width="2.246" height="0.686"/>
		<rect x="410.35" y="235.272" style="fill:#D1D3D4;" width="1.583" height="16.332"/>
		<rect x="410.019" y="251.604" style="fill:#D1D3D4;" width="2.246" height="0.686"/>
	</g>
	<g>
		<rect x="450.358" y="234.929" style="fill:#D1D3D4;" width="2.246" height="0.686"/>
		<rect x="450.69" y="235.615" style="fill:#D1D3D4;" width="1.583" height="16.332"/>
		<rect x="450.358" y="251.947" style="fill:#D1D3D4;" width="2.246" height="0.686"/>
	</g>
	<g>
		<rect x="454.482" y="234.929" style="fill:#D1D3D4;" width="2.246" height="0.686"/>
		<rect x="454.813" y="235.615" style="fill:#D1D3D4;" width="1.583" height="16.332"/>
		<rect x="454.482" y="251.947" style="fill:#D1D3D4;" width="2.246" height="0.686"/>
	</g>
	<g>
		<rect x="458.426" y="234.929" style="fill:#D1D3D4;" width="2.246" height="0.686"/>
		<rect x="458.758" y="235.615" style="fill:#D1D3D4;" width="1.583" height="16.332"/>
		<rect x="458.426" y="251.947" style="fill:#D1D3D4;" width="2.246" height="0.686"/>
	</g>
	<g>
		<rect x="427.777" y="234.586" style="fill:#D1D3D4;" width="2.246" height="0.686"/>
		<rect x="428.108" y="235.272" style="fill:#D1D3D4;" width="1.583" height="16.332"/>
		<rect x="427.777" y="251.604" style="fill:#D1D3D4;" width="2.246" height="0.686"/>
	</g>
	<g>
		<rect x="432.372" y="234.586" style="fill:#D1D3D4;" width="2.246" height="0.686"/>
		<rect x="432.703" y="235.272" style="fill:#D1D3D4;" width="1.583" height="16.332"/>
		<rect x="432.372" y="251.604" style="fill:#D1D3D4;" width="2.246" height="0.686"/>
	</g>
	<g>
		<rect x="436.968" y="234.586" style="fill:#D1D3D4;" width="2.246" height="0.686"/>
		<rect x="437.299" y="235.272" style="fill:#D1D3D4;" width="1.583" height="16.332"/>
		<rect x="436.968" y="251.604" style="fill:#D1D3D4;" width="2.246" height="0.686"/>
	</g>
	<g>
		<rect x="441.563" y="234.586" style="fill:#D1D3D4;" width="2.246" height="0.686"/>
		<rect x="441.895" y="235.272" style="fill:#D1D3D4;" width="1.583" height="16.332"/>
		<rect x="441.563" y="251.604" style="fill:#D1D3D4;" width="2.246" height="0.686"/>
	</g>
	<g>
		<rect x="446.159" y="234.586" style="fill:#D1D3D4;" width="2.246" height="0.686"/>
		<rect x="446.49" y="235.272" style="fill:#D1D3D4;" width="1.583" height="16.332"/>
		<rect x="446.159" y="251.604" style="fill:#D1D3D4;" width="2.246" height="0.686"/>
	</g>
	<polygon style="fill:#D1D3D4;" points="466.591,257.185 395.804,257.185 399.739,252.29 463.288,252.29 	"/>
	<polygon style="fill:#D1D3D4;" points="471.733,262.667 389.738,262.667 394.297,256.996 467.906,256.996 	"/>
	<polygon style="fill:#BCBEC0;" points="412.627,232.328 430.874,228.155 449.122,232.328 	"/>
</g>
<linearGradient id="SVGID_29_" gradientUnits="userSpaceOnUse" x1="311.9945" y1="216.9177" x2="311.9945" y2="228.0679">
	<stop  offset="0" style="stop-color:#FFFFFF;stop-opacity:0"/>
	<stop  offset="1" style="stop-color:#000000"/>
</linearGradient>
<rect x="261.453" y="218.579" style="opacity:0.52;fill:url(#SVGID_29_);" width="101.082" height="3.931"/>
<linearGradient id="SVGID_30_" gradientUnits="userSpaceOnUse" x1="342.907" y1="150.3033" x2="342.907" y2="231.3011">
	<stop  offset="0" style="stop-color:#D1D3D4"/>
	<stop  offset="1" style="stop-color:#000000"/>
</linearGradient>
<polygon style="fill:url(#SVGID_30_);" points="348.123,48.39 342.907,33.79 338.096,48.323 335.026,198.328 350.788,198.328 "/>
</svg>
