<?xml version="1.0" encoding="iso-8859-1"?>
<!-- Generator: Adobe Illustrator 18.1.1, SVG Export Plug-In . SVG Version: 6.00 Build 0)  -->
<svg version="1.1" id="Layer_1" xmlns="http://www.w3.org/2000/svg" xmlns:xlink="http://www.w3.org/1999/xlink" x="0px" y="0px"
	 viewBox="148.667 0 333 288" style="enable-background:new 148.667 0 333 288;" xml:space="preserve">
<rect x="148.667" style="fill:#FFF1E2;" width="333" height="288"/>
<g>
	<rect x="392.062" y="92.145" style="fill:#D1D3D4;" width="52.711" height="0.527"/>
	<g>
		<rect x="400.307" y="72.717" style="fill:#D1D3D4;" width="34.629" height="19.448"/>
		<ellipse style="fill:#D1D3D4;" cx="417.622" cy="74.62" rx="17.315" ry="19.824"/>
		<ellipse style="fill:#D1D3D4;" cx="417.621" cy="46.287" rx="4.075" ry="4.666"/>
		<rect x="398.009" y="83.528" style="fill:#D1D3D4;" width="39.225" height="11.418"/>
		<rect x="399.805" y="71.859" style="fill:#D1D3D4;" width="35.633" height="1.129"/>
		<rect x="400.066" y="72.989" style="fill:#D1D3D4;" width="35.167" height="0.292"/>
		<rect x="399.805" y="82.399" style="fill:#D1D3D4;" width="35.633" height="1.129"/>
		<rect x="416.576" y="37.631" style="fill:#D1D3D4;" width="2.091" height="4.552"/>
		<rect x="412.76" y="54.461" style="fill:#D1D3D4;" width="9.724" height="1.129"/>
		<rect x="412.927" y="45.723" style="fill:#D1D3D4;" width="9.389" height="1.129"/>
		
			<linearGradient id="SVGID_1_" gradientUnits="userSpaceOnUse" x1="417.6824" y1="240.7931" x2="417.4976" y2="230.3222" gradientTransform="matrix(1 0 0 -1 0 288)">
			<stop  offset="0" style="stop-color:#FFFFFF"/>
			<stop  offset="1" style="stop-color:#000000"/>
		</linearGradient>
		<rect x="413.544" y="46.852" style="fill:url(#SVGID_1_);" width="8.155" height="7.609"/>
		
			<linearGradient id="SVGID_2_" gradientUnits="userSpaceOnUse" x1="417.685" y1="214.0495" x2="417.685" y2="194.772" gradientTransform="matrix(1 0 0 -1 0 288)">
			<stop  offset="0" style="stop-color:#FFFFFF"/>
			<stop  offset="1" style="stop-color:#000000"/>
		</linearGradient>
		<rect x="400.434" y="74.31" style="fill:url(#SVGID_2_);" width="34.502" height="7.528"/>
		<rect x="417.324" y="36.047" style="fill:#D1D3D4;" width="0.596" height="1.584"/>
		
			<linearGradient id="SVGID_3_" gradientUnits="userSpaceOnUse" x1="417.5879" y1="201.5261" x2="417.8367" y2="165.3098" gradientTransform="matrix(1 0 0 -1 0 288)">
			<stop  offset="0" style="stop-color:#D1D3D4"/>
			<stop  offset="1" style="stop-color:#000000"/>
		</linearGradient>
		<polygon style="fill:url(#SVGID_3_);" points="435.73,94.068 399.513,94.068 399.513,88.674 417.622,84.532 435.73,88.674 		"/>
		<g>
			<rect x="413.275" y="46.852" style="fill:#D1D3D4;" width="1.61" height="0.295"/>
			<rect x="413.513" y="47.147" style="fill:#D1D3D4;" width="1.135" height="7.035"/>
			<rect x="413.275" y="54.182" style="fill:#D1D3D4;" width="1.61" height="0.295"/>
		</g>
		<g>
			<rect x="415.02" y="46.844" style="fill:#D1D3D4;" width="1.61" height="0.295"/>
			<rect x="415.257" y="47.139" style="fill:#D1D3D4;" width="1.135" height="7.035"/>
			<rect x="415.02" y="54.174" style="fill:#D1D3D4;" width="1.61" height="0.295"/>
		</g>
		<g>
			<rect x="416.841" y="46.852" style="fill:#D1D3D4;" width="1.61" height="0.295"/>
			<rect x="417.078" y="47.147" style="fill:#D1D3D4;" width="1.135" height="7.035"/>
			<rect x="416.841" y="54.182" style="fill:#D1D3D4;" width="1.61" height="0.295"/>
		</g>
		<g>
			<rect x="418.691" y="46.852" style="fill:#D1D3D4;" width="1.61" height="0.295"/>
			<rect x="418.929" y="47.147" style="fill:#D1D3D4;" width="1.135" height="7.035"/>
			<rect x="418.691" y="54.182" style="fill:#D1D3D4;" width="1.61" height="0.295"/>
		</g>
		<g>
			<rect x="420.467" y="46.852" style="fill:#D1D3D4;" width="1.61" height="0.295"/>
			<rect x="420.704" y="47.147" style="fill:#D1D3D4;" width="1.135" height="7.035"/>
			<rect x="420.467" y="54.182" style="fill:#D1D3D4;" width="1.61" height="0.295"/>
		</g>
		<g>
			<rect x="402.418" y="74.261" style="fill:#D1D3D4;" width="1.772" height="0.295"/>
			<rect x="402.68" y="74.556" style="fill:#D1D3D4;" width="1.249" height="7.035"/>
			<rect x="402.418" y="81.591" style="fill:#D1D3D4;" width="1.772" height="0.295"/>
		</g>
		<g>
			<rect x="400.017" y="74.261" style="fill:#D1D3D4;" width="1.772" height="0.295"/>
			<rect x="400.279" y="74.556" style="fill:#D1D3D4;" width="1.249" height="7.035"/>
			<rect x="400.017" y="81.591" style="fill:#D1D3D4;" width="1.772" height="0.295"/>
		</g>
		<g>
			<rect x="404.82" y="74.261" style="fill:#D1D3D4;" width="1.772" height="0.295"/>
			<rect x="405.081" y="74.556" style="fill:#D1D3D4;" width="1.249" height="7.035"/>
			<rect x="404.82" y="81.591" style="fill:#D1D3D4;" width="1.772" height="0.295"/>
		</g>
		<g>
			<rect x="407.221" y="74.261" style="fill:#D1D3D4;" width="1.772" height="0.295"/>
			<rect x="407.482" y="74.556" style="fill:#D1D3D4;" width="1.249" height="7.035"/>
			<rect x="407.221" y="81.591" style="fill:#D1D3D4;" width="1.772" height="0.295"/>
		</g>
		<g>
			<rect x="409.622" y="74.261" style="fill:#D1D3D4;" width="1.772" height="0.295"/>
			<rect x="409.883" y="74.556" style="fill:#D1D3D4;" width="1.249" height="7.035"/>
			<rect x="409.622" y="81.591" style="fill:#D1D3D4;" width="1.772" height="0.295"/>
		</g>
		<g>
			<rect x="412.023" y="74.261" style="fill:#D1D3D4;" width="1.772" height="0.295"/>
			<rect x="412.285" y="74.556" style="fill:#D1D3D4;" width="1.249" height="7.035"/>
			<rect x="412.023" y="81.591" style="fill:#D1D3D4;" width="1.772" height="0.295"/>
		</g>
		<g>
			<rect x="414.424" y="74.261" style="fill:#D1D3D4;" width="1.772" height="0.295"/>
			<rect x="414.686" y="74.556" style="fill:#D1D3D4;" width="1.249" height="7.035"/>
			<rect x="414.424" y="81.591" style="fill:#D1D3D4;" width="1.772" height="0.295"/>
		</g>
		<g>
			<rect x="416.826" y="74.261" style="fill:#D1D3D4;" width="1.772" height="0.295"/>
			<rect x="417.087" y="74.556" style="fill:#D1D3D4;" width="1.249" height="7.035"/>
			<rect x="416.826" y="81.591" style="fill:#D1D3D4;" width="1.772" height="0.295"/>
		</g>
		<g>
			<rect x="419.227" y="74.261" style="fill:#D1D3D4;" width="1.772" height="0.295"/>
			<rect x="419.488" y="74.556" style="fill:#D1D3D4;" width="1.249" height="7.035"/>
			<rect x="419.227" y="81.591" style="fill:#D1D3D4;" width="1.772" height="0.295"/>
		</g>
		<g>
			<rect x="421.628" y="74.261" style="fill:#D1D3D4;" width="1.772" height="0.295"/>
			<rect x="421.889" y="74.556" style="fill:#D1D3D4;" width="1.249" height="7.035"/>
			<rect x="421.628" y="81.591" style="fill:#D1D3D4;" width="1.772" height="0.295"/>
		</g>
		<g>
			<rect x="424.029" y="74.261" style="fill:#D1D3D4;" width="1.772" height="0.295"/>
			<rect x="424.291" y="74.556" style="fill:#D1D3D4;" width="1.249" height="7.035"/>
			<rect x="424.029" y="81.591" style="fill:#D1D3D4;" width="1.772" height="0.295"/>
		</g>
		<g>
			<rect x="426.43" y="74.261" style="fill:#D1D3D4;" width="1.772" height="0.295"/>
			<rect x="426.692" y="74.556" style="fill:#D1D3D4;" width="1.249" height="7.035"/>
			<rect x="426.43" y="81.591" style="fill:#D1D3D4;" width="1.772" height="0.295"/>
		</g>
		<g>
			<rect x="428.832" y="74.261" style="fill:#D1D3D4;" width="1.772" height="0.295"/>
			<rect x="429.093" y="74.556" style="fill:#D1D3D4;" width="1.249" height="7.035"/>
			<rect x="428.832" y="81.591" style="fill:#D1D3D4;" width="1.772" height="0.295"/>
		</g>
		<g>
			<rect x="431.233" y="74.261" style="fill:#D1D3D4;" width="1.772" height="0.295"/>
			<rect x="431.494" y="74.556" style="fill:#D1D3D4;" width="1.249" height="7.035"/>
			<rect x="431.233" y="81.591" style="fill:#D1D3D4;" width="1.772" height="0.295"/>
		</g>
		<g>
			<rect x="433.634" y="74.261" style="fill:#D1D3D4;" width="1.772" height="0.295"/>
			<rect x="433.895" y="74.556" style="fill:#D1D3D4;" width="1.249" height="7.035"/>
			<rect x="433.634" y="81.591" style="fill:#D1D3D4;" width="1.772" height="0.295"/>
		</g>
	</g>
	
		<linearGradient id="SVGID_4_" gradientUnits="userSpaceOnUse" x1="417.5879" y1="199.1561" x2="417.8368" y2="162.9398" gradientTransform="matrix(1 0 0 -1 0 288)">
		<stop  offset="0" style="stop-color:#D1D3D4"/>
		<stop  offset="1" style="stop-color:#000000"/>
	</linearGradient>
	<polygon style="fill:url(#SVGID_4_);" points="435.73,96.438 399.513,96.438 399.513,91.044 417.621,86.902 435.73,91.044 	"/>
	
		<linearGradient id="SVGID_5_" gradientUnits="userSpaceOnUse" x1="418.3884" y1="190.4298" x2="419.1673" y2="77.0962" gradientTransform="matrix(1 0 0 -1 0 288)">
		<stop  offset="0" style="stop-color:#D1D3D4"/>
		<stop  offset="1" style="stop-color:#000000"/>
	</linearGradient>
	<rect x="392.911" y="91.67" style="fill:url(#SVGID_5_);" width="51.079" height="29.878"/>
	
		<linearGradient id="SVGID_6_" gradientUnits="userSpaceOnUse" x1="417.6497" y1="188.079" x2="418.4311" y2="74.3777" gradientTransform="matrix(1 0 0 -1 0 288)">
		<stop  offset="0" style="stop-color:#D1D3D4"/>
		<stop  offset="1" style="stop-color:#000000"/>
	</linearGradient>
	<rect x="385.034" y="94.05" style="fill:url(#SVGID_6_);" width="65.356" height="29.878"/>
	
		<linearGradient id="SVGID_7_" gradientUnits="userSpaceOnUse" x1="417.2106" y1="165.1154" x2="417.8929" y2="65.8196" gradientTransform="matrix(1 0 0 -1 0 288)">
		<stop  offset="0" style="stop-color:#D1D3D4"/>
		<stop  offset="1" style="stop-color:#000000"/>
	</linearGradient>
	<rect x="369.879" y="117.887" style="fill:url(#SVGID_7_);" width="94.772" height="25.833"/>
	
		<linearGradient id="SVGID_8_" gradientUnits="userSpaceOnUse" x1="418.2135" y1="197.3199" x2="418.2135" y2="148.854" gradientTransform="matrix(1 0 0 -1 0 288)">
		<stop  offset="0" style="stop-color:#FFFFFF"/>
		<stop  offset="1" style="stop-color:#000000"/>
	</linearGradient>
	<rect x="392.949" y="97.903" style="fill:url(#SVGID_8_);" width="50.529" height="17.084"/>
	<rect x="389.437" y="117.843" style="fill:#D1D3D4;" width="57.962" height="19.007"/>
	<g>
		<rect x="411.766" y="97.903" style="fill:#D1D3D4;" width="1.987" height="0.662"/>
		<rect x="412.059" y="98.565" style="fill:#D1D3D4;" width="1.401" height="15.761"/>
		<rect x="411.766" y="114.325" style="fill:#D1D3D4;" width="1.987" height="0.662"/>
	</g>
	<g>
		<rect x="392.949" y="97.903" style="fill:#D1D3D4;" width="1.987" height="0.662"/>
		<rect x="393.242" y="98.565" style="fill:#D1D3D4;" width="1.401" height="15.761"/>
		<rect x="392.949" y="114.325" style="fill:#D1D3D4;" width="1.987" height="0.662"/>
	</g>
	<g>
		<rect x="396.021" y="97.903" style="fill:#D1D3D4;" width="1.987" height="0.662"/>
		<rect x="396.315" y="98.565" style="fill:#D1D3D4;" width="1.401" height="15.761"/>
		<rect x="396.021" y="114.325" style="fill:#D1D3D4;" width="1.987" height="0.662"/>
	</g>
	<g>
		<rect x="401.66" y="97.903" style="fill:#D1D3D4;" width="1.987" height="0.662"/>
		<rect x="401.953" y="98.565" style="fill:#D1D3D4;" width="1.401" height="15.761"/>
		<rect x="401.66" y="114.325" style="fill:#D1D3D4;" width="1.987" height="0.662"/>
	</g>
	<g>
		<rect x="404.733" y="97.903" style="fill:#D1D3D4;" width="1.987" height="0.662"/>
		<rect x="405.026" y="98.565" style="fill:#D1D3D4;" width="1.401" height="15.761"/>
		<rect x="404.733" y="114.325" style="fill:#D1D3D4;" width="1.987" height="0.662"/>
	</g>
	<g>
		<rect x="438.418" y="97.903" style="fill:#D1D3D4;" width="1.987" height="0.662"/>
		<rect x="438.711" y="98.565" style="fill:#D1D3D4;" width="1.401" height="15.761"/>
		<rect x="438.418" y="114.325" style="fill:#D1D3D4;" width="1.987" height="0.662"/>
	</g>
	<g>
		<rect x="441.49" y="97.903" style="fill:#D1D3D4;" width="1.987" height="0.662"/>
		<rect x="441.783" y="98.565" style="fill:#D1D3D4;" width="1.401" height="15.761"/>
		<rect x="441.49" y="114.325" style="fill:#D1D3D4;" width="1.987" height="0.662"/>
	</g>
	<g>
		<rect x="427.812" y="97.903" style="fill:#D1D3D4;" width="1.987" height="0.662"/>
		<rect x="428.105" y="98.565" style="fill:#D1D3D4;" width="1.401" height="15.761"/>
		<rect x="427.812" y="114.325" style="fill:#D1D3D4;" width="1.987" height="0.662"/>
	</g>
	<g>
		<rect x="430.885" y="97.903" style="fill:#D1D3D4;" width="1.987" height="0.662"/>
		<rect x="431.178" y="98.565" style="fill:#D1D3D4;" width="1.401" height="15.761"/>
		<rect x="430.885" y="114.325" style="fill:#D1D3D4;" width="1.987" height="0.662"/>
	</g>
	<g>
		<rect x="421.52" y="97.903" style="fill:#D1D3D4;" width="1.987" height="0.662"/>
		<rect x="421.813" y="98.565" style="fill:#D1D3D4;" width="1.401" height="15.761"/>
		<rect x="421.52" y="114.325" style="fill:#D1D3D4;" width="1.987" height="0.662"/>
	</g>
	<rect x="392.062" y="115.002" style="fill:#D1D3D4;" width="52.711" height="1.096"/>
	<rect x="389.47" y="115.743" style="fill:#D1D3D4;" width="58.368" height="4.199"/>
	<rect x="389.407" y="135.181" style="fill:#D1D3D4;" width="59.64" height="4.199"/>
	<g>
		
			<linearGradient id="SVGID_9_" gradientUnits="userSpaceOnUse" x1="418.1954" y1="169.1931" x2="418.2466" y2="139.2623" gradientTransform="matrix(1 0 0 -1 0 288)">
			<stop  offset="0" style="stop-color:#FFFFFF"/>
			<stop  offset="1" style="stop-color:#000000"/>
		</linearGradient>
		<path style="fill:url(#SVGID_9_);" d="M421.338,124.673c0,0.647,0,8.902,0,8.902h-6.25c0,0,0-8.017,0-8.902
			c0-1.726,1.399-3.125,3.125-3.125S421.338,122.947,421.338,124.673z"/>
		
			<linearGradient id="SVGID_10_" gradientUnits="userSpaceOnUse" x1="410.1053" y1="169.1931" x2="410.1566" y2="139.2623" gradientTransform="matrix(1 0 0 -1 0 288)">
			<stop  offset="0" style="stop-color:#FFFFFF"/>
			<stop  offset="1" style="stop-color:#000000"/>
		</linearGradient>
		<path style="fill:url(#SVGID_10_);" d="M413.248,124.673c0,0.647,0,8.902,0,8.902h-6.25c0,0,0-8.017,0-8.902
			c0-1.726,1.399-3.125,3.125-3.125S413.248,122.947,413.248,124.673z"/>
		
			<linearGradient id="SVGID_11_" gradientUnits="userSpaceOnUse" x1="402.0154" y1="169.1931" x2="402.0665" y2="139.2623" gradientTransform="matrix(1 0 0 -1 0 288)">
			<stop  offset="0" style="stop-color:#FFFFFF"/>
			<stop  offset="1" style="stop-color:#000000"/>
		</linearGradient>
		<path style="fill:url(#SVGID_11_);" d="M405.158,124.673c0,0.647,0,8.902,0,8.902h-6.25c0,0,0-8.017,0-8.902
			c0-1.726,1.399-3.125,3.125-3.125S405.158,122.947,405.158,124.673z"/>
		
			<linearGradient id="SVGID_12_" gradientUnits="userSpaceOnUse" x1="393.9243" y1="169.1931" x2="393.9756" y2="139.2623" gradientTransform="matrix(1 0 0 -1 0 288)">
			<stop  offset="0" style="stop-color:#FFFFFF"/>
			<stop  offset="1" style="stop-color:#000000"/>
		</linearGradient>
		<path style="fill:url(#SVGID_12_);" d="M397.067,124.673c0,0.647,0,8.902,0,8.902h-6.25c0,0,0-8.017,0-8.902
			c0-1.726,1.399-3.125,3.125-3.125S397.067,122.947,397.067,124.673z"/>
		
			<linearGradient id="SVGID_13_" gradientUnits="userSpaceOnUse" x1="426.2854" y1="169.1931" x2="426.3366" y2="139.2623" gradientTransform="matrix(1 0 0 -1 0 288)">
			<stop  offset="0" style="stop-color:#FFFFFF"/>
			<stop  offset="1" style="stop-color:#000000"/>
		</linearGradient>
		<path style="fill:url(#SVGID_13_);" d="M429.428,124.673c0,0.647,0,8.902,0,8.902h-6.25c0,0,0-8.017,0-8.902
			c0-1.726,1.399-3.125,3.125-3.125S429.428,122.947,429.428,124.673z"/>
		
			<linearGradient id="SVGID_14_" gradientUnits="userSpaceOnUse" x1="434.3764" y1="169.1931" x2="434.4276" y2="139.2623" gradientTransform="matrix(1 0 0 -1 0 288)">
			<stop  offset="0" style="stop-color:#FFFFFF"/>
			<stop  offset="1" style="stop-color:#000000"/>
		</linearGradient>
		<path style="fill:url(#SVGID_14_);" d="M437.519,124.673c0,0.647,0,8.902,0,8.902h-6.25c0,0,0-8.017,0-8.902
			c0-1.726,1.399-3.125,3.125-3.125S437.519,122.947,437.519,124.673z"/>
		
			<linearGradient id="SVGID_15_" gradientUnits="userSpaceOnUse" x1="442.4663" y1="169.1931" x2="442.5176" y2="139.2623" gradientTransform="matrix(1 0 0 -1 0 288)">
			<stop  offset="0" style="stop-color:#FFFFFF"/>
			<stop  offset="1" style="stop-color:#000000"/>
		</linearGradient>
		<path style="fill:url(#SVGID_15_);" d="M445.609,124.673c0,0.647,0,8.902,0,8.902h-6.25c0,0,0-8.017,0-8.902
			c0-1.726,1.399-3.125,3.125-3.125S445.609,122.947,445.609,124.673z"/>
	</g>
</g>
<linearGradient id="SVGID_16_" gradientUnits="userSpaceOnUse" x1="336.001" y1="114.3453" x2="336.001" y2="35.1152" gradientTransform="matrix(1 0 0 -1 0 288)">
	<stop  offset="0" style="stop-color:#D1D3D4"/>
	<stop  offset="1" style="stop-color:#000000"/>
</linearGradient>
<polygon style="fill:url(#SVGID_16_);" points="341.574,81.596 336,67.125 330.407,81.596 330.146,228.072 341.856,228.072 "/>
<g>
	<rect x="177.004" y="92.326" style="fill:#D1D3D4;" width="107.447" height="41.489"/>
	<rect x="173.28" y="99.418" style="fill:#D1D3D4;" width="115.957" height="2.837"/>
	<rect x="176.117" y="92.326" style="fill:#D1D3D4;" width="108.865" height="0.887"/>
	
		<linearGradient id="SVGID_17_" gradientUnits="userSpaceOnUse" x1="230.7275" y1="199.0873" x2="230.7275" y2="109.5559" gradientTransform="matrix(1 0 0 -1 0 288)">
		<stop  offset="0" style="stop-color:#FFFFFF"/>
		<stop  offset="1" style="stop-color:#000000"/>
	</linearGradient>
	<rect x="177.004" y="102.255" style="fill:url(#SVGID_17_);" width="107.447" height="31.56"/>
	<g>
		<g>
			<rect x="175.142" y="102.255" style="fill:#D1D3D4;" width="3.723" height="29.122"/>
			<rect x="174.788" y="102.255" style="fill:#D1D3D4;" width="4.41" height="0.565"/>
			<rect x="174.788" y="130.812" style="fill:#D1D3D4;" width="4.41" height="0.565"/>
		</g>
		<g>
			<rect x="185.004" y="102.255" style="fill:#D1D3D4;" width="3.723" height="29.122"/>
			<rect x="184.649" y="102.255" style="fill:#D1D3D4;" width="4.41" height="0.565"/>
			<rect x="184.649" y="130.812" style="fill:#D1D3D4;" width="4.41" height="0.565"/>
		</g>
		<g>
			<rect x="194.865" y="102.255" style="fill:#D1D3D4;" width="3.723" height="29.122"/>
			<rect x="194.511" y="102.255" style="fill:#D1D3D4;" width="4.41" height="0.565"/>
			<rect x="194.511" y="130.812" style="fill:#D1D3D4;" width="4.41" height="0.565"/>
		</g>
		<g>
			<rect x="204.727" y="102.255" style="fill:#D1D3D4;" width="3.723" height="29.122"/>
			<rect x="204.372" y="102.255" style="fill:#D1D3D4;" width="4.41" height="0.565"/>
			<rect x="204.372" y="130.812" style="fill:#D1D3D4;" width="4.41" height="0.565"/>
		</g>
		<g>
			<rect x="214.588" y="102.255" style="fill:#D1D3D4;" width="3.723" height="29.122"/>
			<rect x="214.234" y="102.255" style="fill:#D1D3D4;" width="4.41" height="0.565"/>
			<rect x="214.234" y="130.812" style="fill:#D1D3D4;" width="4.41" height="0.565"/>
		</g>
		<g>
			<rect x="224.45" y="102.255" style="fill:#D1D3D4;" width="3.723" height="29.122"/>
			<rect x="224.095" y="102.255" style="fill:#D1D3D4;" width="4.41" height="0.565"/>
			<rect x="224.095" y="130.812" style="fill:#D1D3D4;" width="4.41" height="0.565"/>
		</g>
		<g>
			<rect x="234.312" y="102.255" style="fill:#D1D3D4;" width="3.723" height="29.122"/>
			<rect x="233.957" y="102.255" style="fill:#D1D3D4;" width="4.41" height="0.565"/>
			<rect x="233.957" y="130.812" style="fill:#D1D3D4;" width="4.41" height="0.565"/>
		</g>
		<g>
			<rect x="244.173" y="102.255" style="fill:#D1D3D4;" width="3.723" height="29.122"/>
			<rect x="243.819" y="102.255" style="fill:#D1D3D4;" width="4.41" height="0.565"/>
			<rect x="243.819" y="130.812" style="fill:#D1D3D4;" width="4.41" height="0.565"/>
		</g>
		<g>
			<rect x="254.035" y="102.255" style="fill:#D1D3D4;" width="3.723" height="29.122"/>
			<rect x="253.68" y="102.255" style="fill:#D1D3D4;" width="4.41" height="0.565"/>
			<rect x="253.68" y="130.812" style="fill:#D1D3D4;" width="4.41" height="0.565"/>
		</g>
		<g>
			<rect x="263.896" y="102.255" style="fill:#D1D3D4;" width="3.723" height="29.122"/>
			<rect x="263.542" y="102.255" style="fill:#D1D3D4;" width="4.41" height="0.565"/>
			<rect x="263.542" y="130.812" style="fill:#D1D3D4;" width="4.41" height="0.565"/>
		</g>
		<g>
			<rect x="273.758" y="102.255" style="fill:#D1D3D4;" width="3.723" height="29.122"/>
			<rect x="273.403" y="102.255" style="fill:#D1D3D4;" width="4.41" height="0.565"/>
			<rect x="273.403" y="130.812" style="fill:#D1D3D4;" width="4.41" height="0.565"/>
		</g>
		<g>
			<rect x="283.62" y="102.255" style="fill:#D1D3D4;" width="3.723" height="29.122"/>
			<rect x="283.265" y="102.255" style="fill:#D1D3D4;" width="4.41" height="0.565"/>
			<rect x="283.265" y="130.812" style="fill:#D1D3D4;" width="4.41" height="0.565"/>
		</g>
	</g>
	<polygon style="fill:#D1D3D4;" points="295.266,143.478 166.1,143.478 173.28,131.377 289.238,131.377 	"/>
</g>
<g>
	
		<linearGradient id="SVGID_18_" gradientUnits="userSpaceOnUse" x1="418.3001" y1="125.118" x2="419.4288" y2="-39.1168" gradientTransform="matrix(1 0 0 -1 0 288)">
		<stop  offset="0" style="stop-color:#FFFFFF"/>
		<stop  offset="1" style="stop-color:#000000"/>
	</linearGradient>
	<path style="fill:url(#SVGID_18_);" d="M443.042,204.774c0,13.505-11.086,19.351-24.592,19.351s-24.316-5.845-24.316-19.351
		s10.948-24.454,24.454-24.454S443.042,191.268,443.042,204.774z"/>
	<rect x="395.784" y="193.463" style="fill:#D1D3D4;" width="45.25" height="1.256"/>
	<rect x="396.451" y="192.207" style="fill:#D1D3D4;" width="44" height="1.256"/>
	<rect x="389.282" y="196.202" style="fill:#D1D3D4;" width="59.481" height="1.256"/>
	<rect x="397.482" y="190.951" style="fill:#D1D3D4;" width="41.875" height="1.256"/>
	
		<linearGradient id="SVGID_19_" gradientUnits="userSpaceOnUse" x1="418.7108" y1="95.6611" x2="418.9597" y2="59.4448" gradientTransform="matrix(1 0 0 -1 0 288)">
		<stop  offset="0" style="stop-color:#D1D3D4"/>
		<stop  offset="1" style="stop-color:#000000"/>
	</linearGradient>
	<polygon style="opacity:0.67;fill:url(#SVGID_19_);enable-background:new    ;" points="436.853,199.933 400.636,199.933 
		400.636,194.539 418.745,190.397 436.853,194.539 	"/>
	
		<linearGradient id="SVGID_20_" gradientUnits="userSpaceOnUse" x1="418.5548" y1="94.2949" x2="418.8037" y2="58.0786" gradientTransform="matrix(1 0 0 -1 0 288)">
		<stop  offset="0" style="stop-color:#D1D3D4"/>
		<stop  offset="1" style="stop-color:#000000"/>
	</linearGradient>
	<polygon style="fill:url(#SVGID_20_);" points="436.697,201.299 400.48,201.299 400.48,195.905 418.588,191.763 436.697,195.905 	
		"/>
	
		<linearGradient id="SVGID_21_" gradientUnits="userSpaceOnUse" x1="419.0135" y1="105.412" x2="419.0135" y2="21.0161" gradientTransform="matrix(1 0 0 -1 0 288)">
		<stop  offset="0" style="stop-color:#FFFFFF"/>
		<stop  offset="1" style="stop-color:#000000"/>
	</linearGradient>
	<rect x="390.097" y="195.165" style="fill:url(#SVGID_21_);" width="57.833" height="29.75"/>
	<rect x="395.794" y="194.759" style="fill:#D1D3D4;" width="45.25" height="2.718"/>
	<rect x="395.794" y="196.693" style="fill:#D1D3D4;" width="45.25" height="2.718"/>
	<g>
		<rect x="401.832" y="199.071" style="fill:#D1D3D4;" width="2.229" height="0.681"/>
		<rect x="402.161" y="199.752" style="fill:#D1D3D4;" width="1.571" height="16.208"/>
		<rect x="401.832" y="215.959" style="fill:#D1D3D4;" width="2.229" height="0.681"/>
	</g>
	<g>
		<rect x="406.393" y="199.071" style="fill:#D1D3D4;" width="2.229" height="0.681"/>
		<rect x="406.722" y="199.752" style="fill:#D1D3D4;" width="1.571" height="16.208"/>
		<rect x="406.393" y="215.959" style="fill:#D1D3D4;" width="2.229" height="0.681"/>
	</g>
	<g>
		<rect x="410.954" y="199.071" style="fill:#D1D3D4;" width="2.229" height="0.681"/>
		<rect x="411.282" y="199.752" style="fill:#D1D3D4;" width="1.571" height="16.208"/>
		<rect x="410.954" y="215.959" style="fill:#D1D3D4;" width="2.229" height="0.681"/>
	</g>
	<g>
		<rect x="389.884" y="199.071" style="fill:#D1D3D4;" width="2.229" height="0.681"/>
		<rect x="390.213" y="199.752" style="fill:#D1D3D4;" width="1.571" height="16.208"/>
		<rect x="389.884" y="215.959" style="fill:#D1D3D4;" width="2.229" height="0.681"/>
	</g>
	<g>
		<rect x="393.976" y="199.071" style="fill:#D1D3D4;" width="2.229" height="0.681"/>
		<rect x="394.305" y="199.752" style="fill:#D1D3D4;" width="1.571" height="16.208"/>
		<rect x="393.976" y="215.959" style="fill:#D1D3D4;" width="2.229" height="0.681"/>
	</g>
	<g>
		<rect x="397.891" y="199.071" style="fill:#D1D3D4;" width="2.229" height="0.681"/>
		<rect x="398.22" y="199.752" style="fill:#D1D3D4;" width="1.571" height="16.208"/>
		<rect x="397.891" y="215.959" style="fill:#D1D3D4;" width="2.229" height="0.681"/>
	</g>
	<g>
		<rect x="437.924" y="199.411" style="fill:#D1D3D4;" width="2.229" height="0.681"/>
		<rect x="438.253" y="200.092" style="fill:#D1D3D4;" width="1.571" height="16.208"/>
		<rect x="437.924" y="216.3" style="fill:#D1D3D4;" width="2.229" height="0.681"/>
	</g>
	<g>
		<rect x="442.016" y="199.411" style="fill:#D1D3D4;" width="2.229" height="0.681"/>
		<rect x="442.345" y="200.092" style="fill:#D1D3D4;" width="1.571" height="16.208"/>
		<rect x="442.016" y="216.3" style="fill:#D1D3D4;" width="2.229" height="0.681"/>
	</g>
	<g>
		<rect x="445.931" y="199.411" style="fill:#D1D3D4;" width="2.229" height="0.681"/>
		<rect x="446.26" y="200.092" style="fill:#D1D3D4;" width="1.571" height="16.208"/>
		<rect x="445.931" y="216.3" style="fill:#D1D3D4;" width="2.229" height="0.681"/>
	</g>
	<g>
		<rect x="415.514" y="199.071" style="fill:#D1D3D4;" width="2.229" height="0.681"/>
		<rect x="415.843" y="199.752" style="fill:#D1D3D4;" width="1.571" height="16.208"/>
		<rect x="415.514" y="215.959" style="fill:#D1D3D4;" width="2.229" height="0.681"/>
	</g>
	<g>
		<rect x="420.075" y="199.071" style="fill:#D1D3D4;" width="2.229" height="0.681"/>
		<rect x="420.404" y="199.752" style="fill:#D1D3D4;" width="1.571" height="16.208"/>
		<rect x="420.075" y="215.959" style="fill:#D1D3D4;" width="2.229" height="0.681"/>
	</g>
	<g>
		<rect x="424.635" y="199.071" style="fill:#D1D3D4;" width="2.229" height="0.681"/>
		<rect x="424.964" y="199.752" style="fill:#D1D3D4;" width="1.571" height="16.208"/>
		<rect x="424.635" y="215.959" style="fill:#D1D3D4;" width="2.229" height="0.681"/>
	</g>
	<g>
		<rect x="429.196" y="199.071" style="fill:#D1D3D4;" width="2.229" height="0.681"/>
		<rect x="429.525" y="199.752" style="fill:#D1D3D4;" width="1.571" height="16.208"/>
		<rect x="429.196" y="215.959" style="fill:#D1D3D4;" width="2.229" height="0.681"/>
	</g>
	<g>
		<rect x="433.757" y="199.071" style="fill:#D1D3D4;" width="2.229" height="0.681"/>
		<rect x="434.085" y="199.752" style="fill:#D1D3D4;" width="1.571" height="16.208"/>
		<rect x="433.757" y="215.959" style="fill:#D1D3D4;" width="2.229" height="0.681"/>
	</g>
	<polygon style="fill:#D1D3D4;" points="454.034,221.498 383.784,221.498 387.689,216.64 450.755,216.64 	"/>
	<polygon style="fill:#D1D3D4;" points="459.136,226.938 377.765,226.938 382.289,221.311 455.339,221.311 	"/>
	<polygon style="fill:#BCBEC0;" points="400.48,196.83 418.588,192.688 436.697,196.83 	"/>
</g>
<g>
	<linearGradient id="SVGID_22_" gradientUnits="userSpaceOnUse" x1="230.6608" y1="171.5492" x2="230.6608" y2="258.3372">
		<stop  offset="0" style="stop-color:#FFFFFF"/>
		<stop  offset="1" style="stop-color:#000000"/>
	</linearGradient>
	<polygon style="fill:url(#SVGID_22_);" points="274.055,185.511 187.267,185.511 192.092,183.588 270.004,183.588 	"/>
	<rect x="167.782" y="185.397" style="fill:#D1D3D4;" width="125.337" height="4.741"/>
	<rect x="164.661" y="191.396" style="fill:#D1D3D4;" width="133.167" height="38.031"/>
	<path style="fill:#E6E7E8;" d="M231.161,189.701"/>
	<path style="fill:#E6E7E8;" d="M231.161,196.584"/>
	<linearGradient id="SVGID_23_" gradientUnits="userSpaceOnUse" x1="230.9733" y1="161.0684" x2="230.9733" y2="321.515">
		<stop  offset="0" style="stop-color:#FFFFFF"/>
		<stop  offset="1" style="stop-color:#000000"/>
	</linearGradient>
	<rect x="213.182" y="189.713" style="fill:url(#SVGID_23_);" width="35.583" height="36.988"/>
	<g>
		<rect x="211.998" y="191.155" style="fill:#D1D3D4;" width="3.659" height="1.219"/>
		<rect x="212.538" y="192.374" style="fill:#D1D3D4;" width="2.579" height="29.017"/>
		<rect x="211.998" y="221.391" style="fill:#D1D3D4;" width="3.659" height="1.219"/>
	</g>
	<g>
		<rect x="218.04" y="190.139" style="fill:#D1D3D4;" width="3.659" height="1.258"/>
		<rect x="218.579" y="191.396" style="fill:#D1D3D4;" width="2.579" height="29.948"/>
		<rect x="218.04" y="221.344" style="fill:#D1D3D4;" width="3.659" height="1.258"/>
	</g>
	<g>
		<rect x="223.915" y="189.713" style="fill:#D1D3D4;" width="3.659" height="1.258"/>
		<rect x="224.454" y="190.971" style="fill:#D1D3D4;" width="2.579" height="29.948"/>
		<rect x="223.915" y="220.918" style="fill:#D1D3D4;" width="3.659" height="1.258"/>
	</g>
	<g>
		<rect x="232.79" y="189.713" style="fill:#D1D3D4;" width="3.659" height="1.258"/>
		<rect x="233.329" y="190.971" style="fill:#D1D3D4;" width="2.579" height="29.948"/>
		<rect x="232.79" y="220.918" style="fill:#D1D3D4;" width="3.659" height="1.258"/>
	</g>
	<g>
		<rect x="239.748" y="190.139" style="fill:#D1D3D4;" width="3.659" height="1.258"/>
		<rect x="240.288" y="191.396" style="fill:#D1D3D4;" width="2.579" height="29.948"/>
		<rect x="239.748" y="221.344" style="fill:#D1D3D4;" width="3.659" height="1.258"/>
	</g>
	<g>
		<rect x="246.331" y="191.155" style="fill:#D1D3D4;" width="3.659" height="1.219"/>
		<rect x="246.871" y="192.374" style="fill:#D1D3D4;" width="2.579" height="29.017"/>
		<rect x="246.331" y="221.391" style="fill:#D1D3D4;" width="3.659" height="1.219"/>
	</g>
	<ellipse style="fill:#D1D3D4;" cx="230.244" cy="225.487" rx="25.25" ry="3.94"/>
	<rect x="169.925" y="196.584" style="fill:#BCBEC0;" width="4.667" height="8.5"/>
	<rect x="181.861" y="196.584" style="fill:#BCBEC0;" width="4.667" height="8.5"/>
	<rect x="193.797" y="196.584" style="fill:#BCBEC0;" width="4.667" height="8.5"/>
	<rect x="205.733" y="196.584" style="fill:#BCBEC0;" width="4.667" height="8.5"/>
	<rect x="169.925" y="212.646" style="fill:#BCBEC0;" width="4.667" height="8.5"/>
	<rect x="181.861" y="212.646" style="fill:#BCBEC0;" width="4.667" height="8.5"/>
	<rect x="193.797" y="212.646" style="fill:#BCBEC0;" width="4.667" height="8.5"/>
	<rect x="205.733" y="212.646" style="fill:#BCBEC0;" width="4.667" height="8.5"/>
	<rect x="252.046" y="197.439" style="fill:#BCBEC0;" width="4.667" height="8.5"/>
	<rect x="263.982" y="197.439" style="fill:#BCBEC0;" width="4.667" height="8.5"/>
	<rect x="275.918" y="197.439" style="fill:#BCBEC0;" width="4.667" height="8.5"/>
	<rect x="287.854" y="197.439" style="fill:#BCBEC0;" width="4.667" height="8.5"/>
	<rect x="252.046" y="213.5" style="fill:#BCBEC0;" width="4.667" height="8.5"/>
	<rect x="263.982" y="213.5" style="fill:#BCBEC0;" width="4.667" height="8.5"/>
	<rect x="275.918" y="213.5" style="fill:#BCBEC0;" width="4.667" height="8.5"/>
	<g>
		<rect x="217.133" y="180.406" style="fill:#D1D3D4;" width="2.9" height="5.143"/>
		<rect x="216.928" y="180.32" style="fill:#D1D3D4;" width="3.303" height="0.274"/>
	</g>
	<g>
		<rect x="241.421" y="180.406" style="fill:#D1D3D4;" width="2.9" height="5.143"/>
		<rect x="241.216" y="180.32" style="fill:#D1D3D4;" width="3.303" height="0.274"/>
	</g>
	<rect x="287.854" y="213.5" style="fill:#BCBEC0;" width="4.667" height="8.5"/>
	<rect x="167.282" y="186.117" style="fill:#D1D3D4;" width="128.462" height="5.279"/>
	<path style="fill:#E6E7E8;" d="M249.451,191.764c0,0-3.295-2.768-18.036-2.768c-14.951,0-17.845,2.517-17.845,2.517v-6.478
		c0,0,2.985-3.199,17.845-3.199c15.197,0,17.845,3.199,17.845,3.199L249.451,191.764z"/>
	<path style="fill:#D1D3D4;" d="M250.253,186.425c0,0-3.26-3.36-18.74-3.36c-15.701,0-18.74,3.36-18.74,3.36v-1.229
		c0,0,3.135-3.36,18.74-3.36c15.958,0,18.74,3.36,18.74,3.36V186.425z"/>
	<rect x="249.26" y="186.44" style="fill:#E6E7E8;" width="46.047" height="4.327"/>
	<rect x="167.915" y="186.44" style="fill:#E6E7E8;" width="45.851" height="4.327"/>
	<path style="fill:#D1D3D4;" d="M249.26,190.971c0,0-3.105-3.199-17.845-3.199c-14.951,0-17.845,3.199-17.845,3.199V189.8
		c0,0,2.985-3.199,17.845-3.199c15.197,0,17.845,3.199,17.845,3.199V190.971z"/>
	<rect x="214.619" y="188.625" style="fill:#E6E7E8;" width="0.083" height="0"/>
	<path style="fill:#BCBEC0;" d="M250.154,192.461c0,0-3.26-3.436-18.74-3.436c-15.701,0-18.74,3.436-18.74,3.436v-1.257
		c0,0,3.135-3.436,18.74-3.436c15.958,0,18.74,3.436,18.74,3.436V192.461z"/>
	<g>
		<g>
			<rect x="171.281" y="186.8" style="fill:#D1D3D4;" width="0.299" height="3.967"/>
			<rect x="172.258" y="186.8" style="fill:#D1D3D4;" width="0.299" height="3.967"/>
			<rect x="173.235" y="186.8" style="fill:#D1D3D4;" width="0.299" height="3.967"/>
			<rect x="174.211" y="186.8" style="fill:#D1D3D4;" width="0.299" height="3.967"/>
			<rect x="175.188" y="186.8" style="fill:#D1D3D4;" width="0.299" height="3.967"/>
			<rect x="176.165" y="186.8" style="fill:#D1D3D4;" width="0.299" height="3.967"/>
			<rect x="177.142" y="186.8" style="fill:#D1D3D4;" width="0.299" height="3.967"/>
		</g>
		<rect x="167.854" y="186.8" style="fill:#D1D3D4;" width="2.481" height="3.967"/>
		<g>
			<rect x="181.815" y="186.8" style="fill:#D1D3D4;" width="0.299" height="3.967"/>
			<rect x="182.792" y="186.8" style="fill:#D1D3D4;" width="0.299" height="3.967"/>
			<rect x="183.769" y="186.8" style="fill:#D1D3D4;" width="0.299" height="3.967"/>
			<rect x="184.746" y="186.8" style="fill:#D1D3D4;" width="0.299" height="3.967"/>
			<rect x="185.722" y="186.8" style="fill:#D1D3D4;" width="0.299" height="3.967"/>
			<rect x="186.699" y="186.8" style="fill:#D1D3D4;" width="0.299" height="3.967"/>
			<rect x="187.676" y="186.8" style="fill:#D1D3D4;" width="0.299" height="3.967"/>
		</g>
		<rect x="178.388" y="186.8" style="fill:#D1D3D4;" width="2.481" height="3.967"/>
		<g>
			<rect x="192.349" y="186.8" style="fill:#D1D3D4;" width="0.299" height="3.967"/>
			<rect x="193.326" y="186.8" style="fill:#D1D3D4;" width="0.299" height="3.967"/>
			<rect x="194.303" y="186.8" style="fill:#D1D3D4;" width="0.299" height="3.967"/>
			<rect x="195.28" y="186.8" style="fill:#D1D3D4;" width="0.299" height="3.967"/>
			<rect x="196.256" y="186.8" style="fill:#D1D3D4;" width="0.299" height="3.967"/>
			<rect x="197.233" y="186.8" style="fill:#D1D3D4;" width="0.299" height="3.967"/>
			<rect x="198.21" y="186.8" style="fill:#D1D3D4;" width="0.299" height="3.967"/>
		</g>
		<rect x="188.922" y="186.8" style="fill:#D1D3D4;" width="2.481" height="3.967"/>
		<g>
			<rect x="202.883" y="186.8" style="fill:#D1D3D4;" width="0.299" height="3.967"/>
			<rect x="203.86" y="186.8" style="fill:#D1D3D4;" width="0.299" height="3.967"/>
			<rect x="204.837" y="186.8" style="fill:#D1D3D4;" width="0.299" height="3.967"/>
			<rect x="205.814" y="186.8" style="fill:#D1D3D4;" width="0.299" height="3.967"/>
			<rect x="206.791" y="186.8" style="fill:#D1D3D4;" width="0.299" height="3.967"/>
			<rect x="207.767" y="186.8" style="fill:#D1D3D4;" width="0.299" height="3.967"/>
			<rect x="208.744" y="186.8" style="fill:#D1D3D4;" width="0.299" height="3.967"/>
		</g>
		<rect x="199.456" y="186.8" style="fill:#D1D3D4;" width="2.481" height="3.967"/>
		<rect x="209.99" y="186.8" style="fill:#D1D3D4;" width="2.481" height="3.967"/>
	</g>
	<g>
		<g>
			<rect x="254.117" y="186.802" style="fill:#D1D3D4;" width="0.299" height="3.967"/>
			<rect x="255.094" y="186.802" style="fill:#D1D3D4;" width="0.299" height="3.967"/>
			<rect x="256.071" y="186.802" style="fill:#D1D3D4;" width="0.299" height="3.967"/>
			<rect x="257.047" y="186.802" style="fill:#D1D3D4;" width="0.299" height="3.967"/>
			<rect x="258.024" y="186.802" style="fill:#D1D3D4;" width="0.299" height="3.967"/>
			<rect x="259.001" y="186.802" style="fill:#D1D3D4;" width="0.299" height="3.967"/>
			<rect x="259.978" y="186.802" style="fill:#D1D3D4;" width="0.299" height="3.967"/>
		</g>
		<rect x="250.69" y="186.802" style="fill:#D1D3D4;" width="2.481" height="3.967"/>
		<g>
			<rect x="264.651" y="186.802" style="fill:#D1D3D4;" width="0.299" height="3.967"/>
			<rect x="265.628" y="186.802" style="fill:#D1D3D4;" width="0.299" height="3.967"/>
			<rect x="266.605" y="186.802" style="fill:#D1D3D4;" width="0.299" height="3.967"/>
			<rect x="267.582" y="186.802" style="fill:#D1D3D4;" width="0.299" height="3.967"/>
			<rect x="268.558" y="186.802" style="fill:#D1D3D4;" width="0.299" height="3.967"/>
			<rect x="269.535" y="186.802" style="fill:#D1D3D4;" width="0.299" height="3.967"/>
			<rect x="270.512" y="186.802" style="fill:#D1D3D4;" width="0.299" height="3.967"/>
		</g>
		<rect x="261.224" y="186.802" style="fill:#D1D3D4;" width="2.481" height="3.967"/>
		<g>
			<rect x="275.185" y="186.802" style="fill:#D1D3D4;" width="0.299" height="3.967"/>
			<rect x="276.162" y="186.802" style="fill:#D1D3D4;" width="0.299" height="3.967"/>
			<rect x="277.139" y="186.802" style="fill:#D1D3D4;" width="0.299" height="3.967"/>
			<rect x="278.116" y="186.802" style="fill:#D1D3D4;" width="0.299" height="3.967"/>
			<rect x="279.092" y="186.802" style="fill:#D1D3D4;" width="0.299" height="3.967"/>
			<rect x="280.069" y="186.802" style="fill:#D1D3D4;" width="0.299" height="3.967"/>
			<rect x="281.046" y="186.802" style="fill:#D1D3D4;" width="0.299" height="3.967"/>
		</g>
		<rect x="271.758" y="186.802" style="fill:#D1D3D4;" width="2.481" height="3.967"/>
		<g>
			<rect x="285.719" y="186.802" style="fill:#D1D3D4;" width="0.299" height="3.967"/>
			<rect x="286.696" y="186.802" style="fill:#D1D3D4;" width="0.299" height="3.967"/>
			<rect x="287.673" y="186.802" style="fill:#D1D3D4;" width="0.299" height="3.967"/>
			<rect x="288.65" y="186.802" style="fill:#D1D3D4;" width="0.299" height="3.967"/>
			<rect x="289.626" y="186.802" style="fill:#D1D3D4;" width="0.299" height="3.967"/>
			<rect x="290.603" y="186.802" style="fill:#D1D3D4;" width="0.299" height="3.967"/>
			<rect x="291.58" y="186.802" style="fill:#D1D3D4;" width="0.299" height="3.967"/>
		</g>
		<rect x="282.292" y="186.802" style="fill:#D1D3D4;" width="2.481" height="3.967"/>
		<rect x="292.826" y="186.802" style="fill:#D1D3D4;" width="2.481" height="3.967"/>
	</g>
	<rect x="163.882" y="191.209" style="fill:#BCBEC0;" width="48.794" height="1.112"/>
	<rect x="249.842" y="191.517" style="fill:#BCBEC0;" width="48.794" height="1.112"/>
	<g>
		<rect x="263.909" y="180.406" style="fill:#D1D3D4;" width="2.9" height="5.143"/>
		<rect x="263.704" y="180.32" style="fill:#D1D3D4;" width="3.303" height="0.274"/>
	</g>
	<g>
		<rect x="192.029" y="180.406" style="fill:#D1D3D4;" width="2.9" height="5.143"/>
		<rect x="191.824" y="180.32" style="fill:#D1D3D4;" width="3.303" height="0.274"/>
	</g>
	<linearGradient id="SVGID_24_" gradientUnits="userSpaceOnUse" x1="189.1213" y1="219.6813" x2="189.1213" y2="239.278">
		<stop  offset="0" style="stop-color:#FFFFFF;stop-opacity:0"/>
		<stop  offset="1" style="stop-color:#000000"/>
	</linearGradient>
	<rect x="164.661" y="222.602" style="fill:url(#SVGID_24_);" width="48.921" height="6.908"/>
	<linearGradient id="SVGID_25_" gradientUnits="userSpaceOnUse" x1="271.7577" y1="219.6443" x2="271.7577" y2="239.241">
		<stop  offset="0" style="stop-color:#FFFFFF;stop-opacity:0"/>
		<stop  offset="1" style="stop-color:#000000"/>
	</linearGradient>
	<rect x="247.297" y="222.565" style="fill:url(#SVGID_25_);" width="48.921" height="6.908"/>
	<rect x="211.998" y="222.61" style="fill:#D1D3D4;" width="37.844" height="6.818"/>
</g>
</svg>
